<svg width="500" height="161" viewBox="0 0 500 161" fill="none" xmlns="http://www.w3.org/2000/svg">
<g clip-path="url(#clip0_966_31161)">
<path d="M30.7594 13.9201L27.7422 13.9201L27.7422 15.6601L29.1806 15.6601L29.1806 18.0834L31.2506 19.1683L29.1806 20.4152L29.1806 22.6483L27.7422 22.6483L27.7422 24.3884L30.7594 24.3884L30.7594 20.4152L32.8294 19.1683L30.7594 18.0834L30.7594 13.9201Z" fill="#FF801A"/>
<path d="M32.9275 80.5338L31.1943 80.5338L31.1943 83.563L35.3483 83.563L36.4219 85.6411L37.6709 83.563L41.6214 83.563L41.6214 80.5338L39.8882 80.5338L39.8882 81.9779L37.6709 81.9779L36.4219 84.0561L35.3483 81.9779L32.9275 81.9779L32.9275 80.5338Z" fill="#FF801A"/>
<path d="M130.427 109.677L131.81 109.677L131.81 107.937L128.343 107.937L128.343 112.122C128.343 111.551 128.252 111.023 128.07 110.53C127.887 110.037 127.635 109.607 127.319 109.233C127.003 108.86 126.638 108.571 126.217 108.36C125.796 108.149 125.347 108.043 124.877 108.043L124.877 110.114C125.109 110.114 125.326 110.163 125.53 110.269C125.733 110.375 125.915 110.523 126.07 110.706C126.224 110.889 126.35 111.107 126.442 111.347C126.533 111.586 126.575 111.847 126.575 112.115L126.575 114.299C126.575 114.573 126.533 114.827 126.442 115.073C126.35 115.32 126.231 115.531 126.07 115.715C125.915 115.891 125.733 116.039 125.53 116.137C125.326 116.243 125.109 116.292 124.877 116.292L124.877 118.363C125.347 118.363 125.796 118.258 126.217 118.046C126.638 117.835 127.003 117.546 127.319 117.173C127.635 116.799 127.88 116.37 128.07 115.877C128.252 115.383 128.343 114.855 128.343 114.284L128.343 118.356L131.81 118.356L131.81 116.616L130.427 116.616L130.427 109.656L130.427 109.677Z" fill="#FF801A"/>
<path d="M31.265 89.1212L38.1486 89.1212L38.1486 90.5089L39.8747 90.5089L39.8747 87.0289L29.5459 87.0289L29.5459 90.5089L31.265 90.5089L31.265 89.1212Z" fill="#FF801A"/>
<path d="M78.0394 106.528L84.923 106.528L84.923 107.916L86.6491 107.916L86.6491 104.436L76.3203 104.436L76.3203 107.916L78.0394 107.916L78.0394 106.528Z" fill="#FF801A"/>
<path d="M46.8636 27.7839L41.6641 27.7839L41.6641 33.0039L46.8636 33.0039L46.8636 27.7839Z" fill="#FF801A"/>
<path d="M41.6643 22.5638L36.4648 22.5638L36.4648 27.7839L41.6643 27.7839L41.6643 22.5638Z" fill="#FF801A"/>
<path d="M119.621 76.5818C119.621 74.6586 118.07 73.1018 116.155 73.1018C114.239 73.1018 112.688 74.6586 112.688 76.5818C112.688 78.505 114.239 80.0618 116.155 80.0618C118.07 80.0618 119.621 78.505 119.621 76.5818Z" fill="#FF801A"/>
<path d="M46.2885 131.551C45.0605 131.769 44.1413 132.833 44.1413 134.122C44.1413 134.214 44.1413 134.291 44.1553 134.376C44.1764 134.467 44.1904 134.545 44.1974 134.622L44.1974 134.657C44.2045 134.749 44.2115 134.834 44.2115 134.925C44.2115 136.369 43.0467 137.539 41.6152 137.539C43.3554 138.081 45.7832 138.257 48.2321 136.264L48.2812 136.221C48.3654 136.151 48.4496 136.08 48.5338 136.003C48.8777 135.672 49.1303 135.256 49.2496 134.784L54.9543 128.331L55.0876 128.169L55.0946 128.169C55.3191 127.866 55.4525 127.5 55.4525 127.099C55.4525 126.133 54.6736 125.352 53.7193 125.352C53.2492 125.352 52.8282 125.535 52.5124 125.845L52.4703 125.88L46.2674 131.551L46.2885 131.551Z" fill="#FF801A"/>
<path d="M50.3858 83.5489C49.4455 83.5489 48.6807 84.3167 48.6807 85.2607C48.6807 86.2047 49.4455 86.9725 50.3858 86.9725C51.326 86.9725 52.0909 86.2047 52.0909 85.2607C52.0909 84.3167 51.326 83.5489 50.3858 83.5489Z" fill="#FF801A"/>
<path d="M29.4756 139.222C30.4173 139.222 31.1807 138.456 31.1807 137.51C31.1807 136.565 30.4173 135.799 29.4756 135.799C28.5339 135.799 27.7705 136.565 27.7705 137.51C27.7705 138.456 28.5339 139.222 29.4756 139.222Z" fill="#FF801A"/>
<path d="M29.4756 142.716C28.5353 142.716 27.7705 143.484 27.7705 144.428C27.7705 145.372 28.5353 146.14 29.4756 146.14C30.4159 146.14 31.1807 145.372 31.1807 144.428C31.1807 143.484 30.4159 142.716 29.4756 142.716Z" fill="#FF801A"/>
<path d="M34.6474 144.351C36.5502 144.351 38.0927 142.802 38.0927 140.892C38.0927 138.982 36.5502 137.433 34.6474 137.433C32.7447 137.433 31.2021 138.982 31.2021 140.892C31.2021 142.802 32.7446 144.351 34.6474 144.351Z" fill="#FF801A"/>
<path d="M79.5067 119.676C80.2349 117.911 79.4001 115.888 77.6422 115.157C75.8842 114.426 73.8689 115.264 73.1407 117.029C72.4126 118.793 73.2473 120.817 75.0053 121.548C76.7632 122.279 78.7786 121.441 79.5067 119.676Z" fill="#FF801A"/>
<path d="M50.5404 76.6522L48.5827 78.9276L49.6422 80.0195L51.9859 77.2792L51.9859 75.2926L49.4177 72.9961L48.5195 74.2289L50.5404 76.0464L50.5404 76.6522Z" fill="#FF801A"/>
<path d="M22.7042 137.56L22.213 139.673L20.3605 139.673L20.8587 137.56L19.329 137.56L18.8379 139.673L17.3994 139.673L17.3994 141.047L18.5151 141.047L18.3397 141.836L17.3994 141.836L17.3994 143.21L18.0379 143.21L17.7432 144.449L19.2589 144.449L19.5536 143.21L21.4131 143.21L21.1254 144.449L22.655 144.449L22.9287 143.21L24.2198 143.21L24.2198 141.836L23.2515 141.836L23.4199 141.047L24.2198 141.047L24.2198 139.673L23.7427 139.673L24.2198 137.56L22.7042 137.56ZM21.7218 141.836L19.8553 141.836L20.0448 141.047L21.8902 141.047L21.7218 141.836Z" fill="#FF801A"/>
<path d="M133.648 139.3L133.156 141.413L131.304 141.413L131.802 139.3L130.272 139.3L129.781 141.413L128.343 141.413L128.343 142.794L129.458 142.794L129.283 143.576L128.343 143.576L128.343 144.957L128.981 144.957L128.687 146.196L130.202 146.196L130.497 144.957L132.356 144.957L132.062 146.196L133.591 146.196L133.872 144.957L135.163 144.957L135.163 143.576L134.195 143.576L134.363 142.794L135.163 142.794L135.163 141.413L134.686 141.413L135.163 139.3L133.648 139.3V139.3ZM132.665 143.576L130.799 143.576L130.988 142.794L132.834 142.794L132.665 143.576Z" fill="#FF801A"/>
<path d="M35.054 79.9561L36.5696 79.9561L36.8573 78.7092L38.7238 78.7092L38.4291 79.9561L39.9587 79.9561L40.2394 78.7092L41.5305 78.7092L41.5305 77.3355L40.5552 77.3355L40.7306 76.5466L41.5305 76.5466L41.5305 75.1729L41.0464 75.1729L41.5305 73.0595L40.0149 73.0595L39.5167 75.1729L37.6713 75.1729L38.1624 73.0595L36.6328 73.0595L36.1416 75.1729L34.7031 75.1729L34.7031 76.5465L35.8258 76.5465L35.6504 77.3355L34.7031 77.3355L34.7031 78.7092L35.3417 78.7092L35.054 79.9561ZM37.3555 76.5466L39.2009 76.5466L39.0255 77.3355L37.166 77.3355L37.3555 76.5466V76.5466Z" fill="#FF801A"/>
<path d="M19.2383 13.9694L18.7472 16.0828L16.8947 16.0828L17.3929 13.9694L15.8632 13.9694L15.365 16.0828L13.9336 16.0828L13.9336 17.4565L15.0493 17.4565L14.8739 18.2455L13.9336 18.2455L13.9336 19.6192L14.5721 19.6192L14.2774 20.859L15.7931 20.859L16.0878 19.6192L17.9472 19.6192L17.6525 20.859L19.1822 20.859L19.4629 19.6192L20.754 19.6192L20.754 18.2455L19.7856 18.2455L19.9541 17.4565L20.754 17.4565L20.754 16.0828L20.2768 16.0828L20.754 13.9694L19.2383 13.9694V13.9694ZM18.256 18.2455L16.3895 18.2455L16.5789 17.4565L18.4244 17.4565L18.256 18.2455Z" fill="#FF801A"/>
<path d="M42.8354 73.9753C42.7231 74.0669 42.6319 74.1725 42.5688 74.2993C42.5056 74.4191 42.4775 74.5529 42.4775 74.6938L42.4775 75.821C42.4775 75.9548 42.5056 76.0887 42.5688 76.2155C42.6319 76.3423 42.7231 76.455 42.8354 76.5466C42.9477 76.6381 43.081 76.7086 43.2283 76.7649C43.3827 76.8213 43.5371 76.8495 43.7125 76.8495L44.4914 76.8495L44.4914 78.0964L42.6179 78.0964L42.6179 79.1953L44.4914 79.1953L44.4914 79.935L45.8105 79.935L45.8105 79.1953L46.435 79.1953C46.6105 79.1953 46.7719 79.1672 46.9192 79.1108C47.0736 79.0544 47.1999 78.984 47.3122 78.8924C47.4174 78.8008 47.5086 78.6881 47.5788 78.5613C47.6419 78.4345 47.677 78.3077 47.677 78.1668L47.677 76.772C47.677 76.6311 47.6419 76.5043 47.5788 76.3775C47.5086 76.2577 47.4174 76.145 47.3122 76.0534C47.1999 75.9548 47.0736 75.8844 46.9192 75.828C46.7719 75.7787 46.6105 75.7505 46.435 75.7505L45.8105 75.7505L45.8105 74.7643L47.3192 74.7643L47.3192 73.6724L45.8105 73.6724L45.8105 72.9749L44.4914 72.9749L44.4914 73.6724L43.7125 73.6724C43.5371 73.6724 43.3827 73.7005 43.2283 73.7499C43.081 73.8062 42.9477 73.8837 42.8354 73.9753V73.9753ZM45.8105 76.8495L46.3579 76.8495L46.3579 78.0964L45.8105 78.0964L45.8105 76.8495ZM43.7967 74.7643L44.4914 74.7643L44.4914 75.7505L43.7967 75.7505L43.7967 74.7643Z" fill="#FF801A"/>
<path d="M37.1245 109.177C36.8087 108.804 36.4438 108.515 36.0228 108.304C35.6018 108.092 35.1527 107.987 34.6826 107.987L34.6826 110.058C34.9142 110.058 35.1317 110.107 35.3352 110.213C35.5387 110.318 35.7211 110.459 35.8755 110.635C36.0299 110.811 36.1562 111.03 36.2474 111.276C36.3386 111.523 36.3807 111.784 36.3807 112.051L36.3807 114.235C36.3807 114.51 36.3386 114.763 36.2474 115.003C36.1562 115.243 36.0369 115.454 35.8755 115.644C35.7211 115.827 35.5387 115.975 35.3352 116.081C35.1317 116.187 34.9142 116.236 34.6826 116.236L34.6826 118.307C35.1527 118.307 35.6018 118.201 36.0228 117.99C36.4438 117.779 36.8087 117.49 37.1245 117.116C37.4402 116.743 37.6858 116.313 37.8753 115.82C38.0577 115.327 38.1489 114.799 38.1489 114.228L38.1489 112.044C38.1489 111.474 38.0577 110.945 37.8753 110.452C37.6928 109.959 37.4402 109.529 37.1245 109.156L37.1245 109.177Z" fill="#FF801A"/>
<path d="M62.4479 122.9L62.4479 123.506L65.9143 123.506L64.6793 118.321L65.9143 113.136L62.4479 113.136L62.4479 113.742C62.3076 113.643 62.1743 113.545 62.0199 113.474C61.5989 113.263 61.1498 113.157 60.6797 113.157L60.6797 115.228C60.9112 115.228 61.1288 115.278 61.3323 115.383C61.5357 115.489 61.7182 115.63 61.8726 115.806C62.0269 115.982 62.1532 116.201 62.2444 116.447C62.3357 116.694 62.3778 116.954 62.3778 117.222L62.3778 119.406C62.3778 119.681 62.3357 119.934 62.2444 120.174C62.1532 120.413 62.0339 120.625 61.8725 120.815C61.7182 120.998 61.5357 121.146 61.3323 121.252C61.1288 121.357 60.9112 121.407 60.6797 121.407L60.6797 123.478C61.1498 123.478 61.5989 123.372 62.0199 123.161C62.1743 123.083 62.3076 122.985 62.4479 122.893L62.4479 122.9Z" fill="#FF801A"/>
<path d="M51.3047 122.301C51.6205 122.675 51.9854 122.963 52.4064 123.175C52.8274 123.386 53.2765 123.492 53.7466 123.492L53.7466 121.421C53.515 121.421 53.2975 121.371 53.094 121.266C52.8905 121.16 52.7081 121.019 52.5537 120.843C52.3994 120.667 52.2731 120.448 52.1818 120.202C52.0906 119.955 52.0485 119.695 52.0485 119.427L52.0485 117.243C52.0485 116.968 52.0906 116.715 52.1818 116.475C52.2731 116.236 52.3923 116.024 52.5537 115.834C52.7081 115.651 52.8905 115.503 53.094 115.398C53.2975 115.292 53.515 115.243 53.7466 115.243L53.7466 113.171C53.2765 113.171 52.8274 113.277 52.4064 113.488C51.9854 113.7 51.6205 113.989 51.3047 114.362C50.989 114.735 50.7434 115.165 50.5539 115.658C50.3715 116.151 50.2803 116.68 50.2803 117.25L50.2803 119.434C50.2803 120.005 50.3715 120.533 50.5539 121.026C50.7364 121.519 50.989 121.949 51.3047 122.322L51.3047 122.301Z" fill="#FF801A"/>
<path d="M108.507 136.257C108.823 136.63 109.188 136.919 109.609 137.13C109.868 137.257 110.142 137.334 110.422 137.384C110.591 137.44 110.766 137.475 110.949 137.475C111.889 137.475 112.654 136.707 112.654 135.763C112.654 134.819 111.889 134.052 110.949 134.052C110.43 134.052 109.966 134.291 109.651 134.657C109.538 134.509 109.447 134.34 109.377 134.157C109.286 133.911 109.244 133.65 109.244 133.382L109.244 131.199C109.244 130.924 109.286 130.67 109.377 130.431C109.447 130.248 109.538 130.093 109.644 129.938C109.959 130.311 110.422 130.557 110.949 130.557C111.889 130.557 112.654 129.79 112.654 128.846C112.654 127.902 111.889 127.134 110.949 127.134C110.822 127.134 110.703 127.148 110.584 127.176C110.247 127.218 109.917 127.296 109.609 127.451C109.188 127.662 108.823 127.951 108.507 128.324C108.191 128.698 107.946 129.127 107.756 129.621C107.574 130.114 107.482 130.642 107.482 131.213L107.482 133.396C107.482 133.967 107.574 134.495 107.756 134.989C107.939 135.482 108.191 135.911 108.507 136.285L108.507 136.257Z" fill="#FF801A"/>
<path d="M34.647 119.73C34.4154 119.73 34.1979 119.681 33.9944 119.575C33.7909 119.469 33.6085 119.321 33.4541 119.138C33.2998 118.955 33.1735 118.737 33.0822 118.497C32.991 118.258 32.9489 117.997 32.9489 117.729L32.9489 115.545C32.9489 115.271 32.991 115.017 33.0822 114.771C33.1735 114.524 33.2927 114.313 33.4541 114.129C33.6085 113.953 33.7909 113.805 33.9944 113.707C34.1979 113.601 34.4154 113.552 34.647 113.552L34.647 111.481C34.1769 111.481 33.7278 111.586 33.3068 111.798C32.8858 112.009 32.5209 112.298 32.2051 112.671C31.8894 113.045 31.6438 113.474 31.4543 113.967C31.2719 114.461 31.1807 114.989 31.1807 115.56L31.1807 117.743C31.1807 118.314 31.2719 118.842 31.4543 119.335C31.6368 119.829 31.8894 120.258 32.2051 120.632C32.5209 121.005 32.8858 121.294 33.3068 121.505C33.7208 121.709 34.1628 121.815 34.6259 121.815L34.6259 125.211L41.5446 125.211L41.5446 121.752L34.64 121.752L34.64 119.744L34.647 119.73Z" fill="#FF801A"/>
<path d="M31.1878 107.944L31.1948 107.944L32.5 100.914L30.3528 100.914L29.0336 107.902L27.7285 114.933L29.8757 114.933L31.1878 107.944Z" fill="#FF801A"/>
<path d="M90.817 118.074C89.7925 118.363 88.4804 120.244 86.8244 120.244C85.1684 120.244 83.9826 118.067 82.7336 118.074C79.2883 118.074 77.085 126.429 78.9515 128.219C79.4848 128.726 80.3689 129.001 81.1267 128.817C81.8845 128.634 83.6037 125.521 86.8314 125.521C90.0592 125.521 91.7151 128.282 92.3958 128.67C93.0834 129.064 93.757 128.994 94.6342 128.444C97.0129 126.965 93.6939 117.25 90.817 118.074ZM84.9579 123.83L83.5124 123.83L83.5124 125.352L81.7231 125.352L81.7231 123.83L80.2777 123.83L80.2777 122.034L81.7231 122.034L81.7231 120.505L83.5124 120.505L83.5124 122.034L84.9579 122.034L84.9579 123.83ZM91.1608 120.505C91.659 120.505 92.059 120.913 92.059 121.407C92.059 121.9 91.659 122.301 91.1608 122.301C90.6626 122.301 90.2697 121.9 90.2697 121.407C90.2697 120.913 90.6696 120.505 91.1608 120.505ZM88.7681 122.935C88.7681 122.442 89.168 122.034 89.6662 122.034C90.1644 122.034 90.5574 122.442 90.5574 122.935C90.5574 123.428 90.1574 123.83 89.6662 123.83C89.175 123.83 88.7681 123.428 88.7681 122.935V122.935ZM91.1608 125.352C90.6696 125.352 90.2697 124.95 90.2697 124.45C90.2697 123.95 90.6696 123.555 91.1608 123.555C91.652 123.555 92.059 123.957 92.059 124.45C92.059 124.943 91.659 125.352 91.1608 125.352ZM93.5816 122.935C93.5816 123.428 93.1817 123.83 92.6905 123.83C92.1993 123.83 91.7994 123.428 91.7994 122.935C91.7994 122.442 92.1993 122.034 92.6905 122.034C93.1817 122.034 93.5816 122.442 93.5816 122.935Z" fill="#FF801A"/>
<path d="M86.1016 118.673C86.1016 118.73 86.1016 118.758 86.1016 118.772C86.1156 119.18 86.4594 119.49 86.8594 119.476C87.2593 119.462 87.5751 119.117 87.5611 118.716L87.5611 118.673C87.5611 118.525 87.5821 118.004 87.7365 117.518C87.8137 117.271 87.9259 117.039 88.0663 116.849C88.2066 116.666 88.368 116.525 88.5855 116.433C88.8873 116.306 89.21 116.236 89.5609 116.201C90.0871 116.144 90.6836 116.165 91.3291 116.095C91.9747 116.032 92.6974 115.862 93.371 115.383C94.1288 114.848 94.5709 114.193 94.7884 113.594C95.013 112.995 95.034 112.46 95.034 112.15C95.034 112.072 95.034 112.002 95.034 111.967C95.034 111.558 94.7042 111.234 94.3043 111.234C93.9043 111.234 93.5745 111.565 93.5745 111.967C93.5745 112.023 93.5745 112.087 93.5745 112.15C93.5745 112.389 93.5605 112.728 93.4272 113.08C93.2938 113.432 93.0553 113.812 92.536 114.186C92.2624 114.376 91.9887 114.489 91.68 114.559C91.2169 114.665 90.6695 114.672 90.052 114.693C89.4346 114.721 88.7399 114.778 88.0242 115.081C87.54 115.285 87.1681 115.609 86.9015 115.968C86.5015 116.504 86.3191 117.102 86.2138 117.595C86.1156 118.089 86.1016 118.497 86.1016 118.68L86.1016 118.673Z" fill="#FF801A"/>
<path d="M92.7677 42.8875C93.301 42.0703 93.6168 41.0911 93.6168 40.0344C93.6168 37.1532 91.2872 34.8144 88.4173 34.8144C85.5474 34.8144 83.2178 37.1532 83.2178 40.0344C83.2178 42.9157 85.5404 45.2615 88.4173 45.2615C89.4838 45.2615 90.4732 44.9304 91.2942 44.3809L94.6272 47.7271L96.1077 46.2407L92.7677 42.8875V42.8875ZM88.4173 43.444C86.5438 43.444 85.0281 41.9153 85.0281 40.0344C85.0281 38.1535 86.5438 36.6319 88.4173 36.6319C90.2908 36.6319 91.8064 38.1606 91.8064 40.0344C91.8064 41.9083 90.2908 43.444 88.4173 43.444Z" fill="#FF801A"/>
<path d="M88.417 37.4772L88.417 37.9703C88.9854 37.9703 89.4976 38.2028 89.8765 38.5762C90.2484 38.9495 90.4799 39.4638 90.4799 40.0415L90.9711 40.0415C90.9711 38.6255 89.8274 37.4843 88.424 37.4843L88.417 37.4772Z" fill="#FF801A"/>
<path d="M149.881 13.8253C151.733 13.3865 152.88 11.5235 152.443 9.66433C152.006 7.80511 150.15 6.65365 148.298 7.09247C146.447 7.53128 145.3 9.3942 145.737 11.2534C146.174 13.1126 148.029 14.2641 149.881 13.8253Z" fill="#FF801A"/>
<path d="M111.751 62.5736C113.603 62.1348 114.75 60.2719 114.313 58.4127C113.876 56.5535 112.02 55.402 110.169 55.8408C108.317 56.2796 107.17 58.1426 107.607 60.0018C108.044 61.861 109.9 63.0125 111.751 62.5736Z" fill="#FF801A"/>
<path d="M52.8193 92.885C54.1647 91.5342 54.1647 89.3442 52.8193 87.9934C51.4738 86.6426 49.2924 86.6426 47.9469 87.9934C46.6015 89.3442 46.6015 91.5342 47.9469 92.885C49.2924 94.2358 51.4738 94.2358 52.8193 92.885Z" fill="#FF801A"/>
<path d="M98.8018 34.8707C97.8615 34.8707 97.0967 35.6386 97.0967 36.5826C97.0967 37.5265 97.8615 38.2944 98.8018 38.2944C99.742 38.2944 100.507 37.5265 100.507 36.5826C100.507 35.6386 99.742 34.8707 98.8018 34.8707Z" fill="#FF801A"/>
<path d="M64.1319 41.7744C63.1916 41.7744 62.4268 42.5423 62.4268 43.4863C62.4268 44.4302 63.1916 45.1981 64.1319 45.1981C65.0721 45.1981 65.8369 44.4302 65.8369 43.4863C65.8369 42.5423 65.0721 41.7744 64.1319 41.7744Z" fill="#FF801A"/>
<path d="M133.486 111.417C132.546 111.417 131.781 112.185 131.781 113.129C131.781 114.073 132.546 114.841 133.486 114.841C134.427 114.841 135.191 114.073 135.191 113.129C135.191 112.185 134.427 111.417 133.486 111.417Z" fill="#FF801A"/>
<path d="M140.398 127.056C140.398 126.112 139.634 125.344 138.693 125.344C137.753 125.344 136.988 126.112 136.988 127.056C136.988 128 137.753 128.768 138.693 128.768C139.634 128.768 140.398 128 140.398 127.056Z" fill="#FF801A"/>
<path d="M123.088 139.265C122.148 139.265 121.383 140.032 121.383 140.976C121.383 141.92 122.148 142.688 123.088 142.688C124.028 142.688 124.793 141.92 124.793 140.976C124.793 140.032 124.028 139.265 123.088 139.265Z" fill="#FF801A"/>
<path d="M112.675 41.7815C113.615 41.7815 114.38 41.0136 114.38 40.0696C114.38 39.1257 113.615 38.3578 112.675 38.3578C111.735 38.3578 110.97 39.1257 110.97 40.0696C110.97 41.0136 111.735 41.7815 112.675 41.7815Z" fill="#FF801A"/>
<path d="M131.739 47.0508C130.799 47.0508 130.034 47.8187 130.034 48.7627C130.034 49.7067 130.799 50.4745 131.739 50.4745C132.68 50.4745 133.444 49.7067 133.444 48.7627C133.444 47.8187 132.68 47.0508 131.739 47.0508Z" fill="#FF801A"/>
<path d="M136.967 17.4142C137.907 17.4142 138.672 16.6464 138.672 15.7024C138.672 14.7584 137.907 13.9906 136.967 13.9906C136.027 13.9906 135.262 14.7584 135.262 15.7024C135.262 16.6464 136.027 17.4142 136.967 17.4142Z" fill="#FF801A"/>
<path d="M124.807 57.4909C123.866 57.4909 123.102 58.2588 123.102 59.2028C123.102 60.1467 123.866 60.9146 124.807 60.9146C125.747 60.9146 126.512 60.1468 126.512 59.2028C126.512 58.2588 125.747 57.4909 124.807 57.4909Z" fill="#FF801A"/>
<path d="M117.896 69.6499C117.896 70.5939 118.66 71.3617 119.601 71.3617C120.541 71.3617 121.306 70.5939 121.306 69.6499C121.306 68.7059 120.541 67.9381 119.601 67.9381C118.66 67.9381 117.896 68.7059 117.896 69.6499Z" fill="#FF801A"/>
<path d="M13.8496 12.011C13.8496 11.4193 13.5549 10.905 13.1058 10.595L13.7934 9.799L13.8145 9.77786L13.6461 9.60879L12.8532 8.79866L12.7479 8.69299L12.0182 9.54539L10.9516 10.7852C10.8814 10.8486 10.8253 10.9191 10.7692 10.9966L10.4043 11.4263L10.4043 12.9761L12.0252 14.8711L12.7479 15.7165L12.8532 15.6108L13.6461 14.8007L13.8145 14.6316L13.7934 14.6105L13.0426 13.744L12.8883 13.5679C13.4566 13.2861 13.8496 12.7084 13.8496 12.0321L13.8496 12.011Z" fill="#FF801A"/>
<path d="M136.938 27.8543C137.879 27.8543 138.644 27.0865 138.644 26.1425C138.644 25.1985 137.879 24.4306 136.938 24.4306C135.998 24.4306 135.233 25.1985 135.233 26.1425C135.233 27.0865 135.998 27.8543 136.938 27.8543Z" fill="#FF801A"/>
<path d="M121.341 34.8566L117.896 34.8566L117.896 41.5913L121.341 41.5913L121.341 34.8566Z" fill="#FF801A"/>
<path d="M121.375 95.7501L121.375 95.7642C121.375 96.7082 122.14 97.4761 123.08 97.4761C124.021 97.4761 124.785 96.7082 124.785 95.7642L124.785 95.7501L124.813 95.7501L124.813 92.2912L121.368 92.2912L121.368 95.7501L121.375 95.7501Z" fill="#FF801A"/>
<path d="M64.1386 29.6225L60.6934 29.6225L60.6934 33.0814L64.1386 33.0814L64.1386 29.6225Z" fill="#FF801A"/>
<path d="M43.3476 64.4369L39.9023 64.4369L39.9023 67.8958L43.3476 67.8958L43.3476 64.4369Z" fill="#FF801A"/>
<path d="M55.4867 120.082C55.4867 121.033 56.2586 121.801 57.2129 121.801C58.1671 121.801 58.932 121.033 58.939 120.082L58.946 120.082C59.9003 120.082 60.6722 119.307 60.6722 118.349C60.6722 117.391 59.9003 116.616 58.946 116.616L58.939 116.616L58.939 116.588C58.939 115.63 58.1671 114.855 57.2129 114.855C56.2586 114.855 55.4867 115.63 55.4867 116.588C55.4867 116.602 55.4867 116.609 55.4867 116.616C54.5324 116.616 53.7676 117.391 53.7676 118.349C53.7676 119.307 54.5394 120.075 55.4867 120.082Z" fill="#FF801A"/>
<path d="M103.995 31.3273L100.55 31.3273L100.55 34.7862L103.995 34.7862L103.995 31.3273Z" fill="#FF801A"/>
<path d="M81.457 31.3484L78.0117 31.3484L78.0117 34.8073L81.457 34.8073L81.457 31.3484Z" fill="#FF801A"/>
<path d="M117.867 31.3766L110.948 31.3766L110.948 34.8355L117.867 34.8355L117.867 31.3766Z" fill="#FF801A"/>
<path d="M131.753 55.6734L128.308 55.6734L128.308 62.6194L131.753 62.6194L131.753 55.6734Z" fill="#FF801A"/>
<path d="M121.361 62.6758L121.361 62.6546L121.361 59.2239L117.916 59.2239L117.916 62.6546L114.436 62.6546L114.436 66.1135L121.361 66.1135L121.361 62.6758Z" fill="#FF801A"/>
<path d="M131.747 100.949L124.828 100.949L124.828 104.408L131.747 104.408L131.747 100.949Z" fill="#FF801A"/>
<path d="M128.252 17.4494L121.333 17.4494L121.333 20.9083L128.252 20.9083L128.252 17.4494Z" fill="#FF801A"/>
<path d="M124.463 52.764C125.291 50.6718 124.94 46.0716 119.916 43.3172C119.67 43.1763 119.375 43.4017 119.453 43.6765C119.726 44.6416 120 46.3816 118.919 47.4876C118.919 47.4876 118.744 45.6067 117.579 44.5571C117.347 44.3528 116.976 44.4443 116.884 44.7402C116.723 45.3108 116.379 46.2407 115.748 47.1988C114.723 48.7415 113.916 50.6084 114.751 52.7288C115.586 54.8563 117.93 55.7298 119.593 55.7298C121.256 55.7298 123.592 54.9478 124.463 52.764V52.764ZM120.624 53.8489C120 54.2434 119.214 54.2434 118.589 53.8489C117.586 53.2219 116.211 52.0807 116.211 50.5379C116.211 50.5379 116.176 48.7627 117.804 48.7627C118.737 48.7627 119.193 49.2699 119.41 49.6996C119.495 49.8616 119.719 49.8616 119.796 49.6996C120.014 49.2699 120.47 48.7627 121.41 48.7627C123.031 48.7627 122.996 50.5379 122.996 50.5379C122.996 52.0807 121.621 53.2219 120.624 53.8489V53.8489Z" fill="#FF801A"/>
<path d="M110.941 30.1368L108.913 28.3193L108.913 27.7064L110.871 25.438L109.818 24.3461L107.475 27.0865L107.475 29.073L110.036 31.3696L110.941 30.1368Z" fill="#FF801A"/>
<path d="M80.7124 43.4863L81.5053 42.6691L81.6667 42.5L81.6526 42.4719L80.9018 41.6054L79.709 40.2317L79.709 39.9288L80.9088 38.541L81.6526 37.6886L81.6667 37.6604L81.5053 37.4913L80.7124 36.6741L80.6071 36.5685L79.8844 37.4209L78.2705 39.3018L78.2705 40.8516L79.8914 42.7395L80.6071 43.5919L80.7124 43.4863Z" fill="#FF801A"/>
<path d="M127.494 40.2387L128.231 39.3863L128.252 39.3581L128.09 39.1891L127.298 38.3719L127.192 38.2662L126.47 39.1186L124.849 40.9995L124.849 42.5493L126.47 44.4443L127.192 45.2897L127.298 45.184L128.09 44.3668L128.252 44.1978L128.231 44.1696L127.48 43.3031L126.294 41.9294L126.294 41.6265L127.494 40.2387Z" fill="#FF801A"/>
<path d="M142.812 20.9224L142.911 20.8168L143.704 19.9996L143.872 19.8305L143.851 19.8094L143.1 18.9359L141.907 17.5622L141.907 17.2663L143.107 15.8785L143.851 15.0191L143.872 14.9909L143.704 14.8218L142.911 14.0117L142.812 13.899L142.083 14.7514L140.469 16.6323L140.469 18.1821L142.09 20.0771L142.812 20.9224Z" fill="#FF801A"/>
<path d="M81.0283 48.6359L80.923 48.7486L80.1372 49.5587L79.9687 49.7348L79.9898 49.756L80.7406 50.6224L81.9335 52.0032L81.9335 52.2991L80.7336 53.6868L79.9898 54.5463L79.9687 54.5674L80.1372 54.7435L80.923 55.5537L81.0283 55.6593L81.758 54.8069L83.3719 52.926L83.3719 51.3762L81.751 49.4883L81.0283 48.6359Z" fill="#FF801A"/>
<path d="M25.3711 137.454L25.2658 137.56L24.4729 138.377L24.3115 138.546L24.3256 138.574L25.0834 139.441L26.2692 140.814L26.2692 141.117L25.0693 142.505L24.3256 143.358L24.3115 143.386L24.4729 143.555L25.2658 144.372L25.3711 144.478L26.0938 143.625L27.7147 141.744L27.7147 140.194L26.0938 138.299L25.3711 137.454Z" fill="#FF801A"/>
<path d="M113.579 68.1001L114.337 67.2266L114.351 67.2054L114.19 67.0364L113.397 66.2192L113.292 66.1135L112.569 66.9589L110.948 68.8539L109.327 66.9589L108.604 66.1135L108.506 66.2192L107.713 67.0364L107.552 67.2054L107.566 67.2266L108.317 68.1001L109.509 69.4738L109.509 69.7697L108.31 71.1574L107.566 72.0169L107.552 72.0451L107.713 72.2141L108.506 73.0243L108.604 73.137L109.334 72.2846L110.948 70.4037L112.569 72.2846L113.292 73.137L113.397 73.0243L114.19 72.2141L114.351 72.0451L114.337 72.0169L113.593 71.1574L112.393 69.7697L112.393 69.4738L113.579 68.1001Z" fill="#FF801A"/>
<path d="M134.693 38.2803L134.588 38.386L133.802 39.2032L133.634 39.3722L133.655 39.4004L134.392 40.2528L135.599 41.6406L135.599 41.9435L134.406 43.3172L133.655 44.1837L133.634 44.2119L133.802 44.3809L134.588 45.1981L134.693 45.3038L135.416 44.4584L137.037 42.5634L137.037 41.0136L135.423 39.1327L134.693 38.2803Z" fill="#FF801A"/>
<path d="M144.678 18.9429L143.927 19.8094L143.906 19.8305L144.075 20.0066L144.861 20.8168L144.966 20.9224L145.689 20.0771L147.309 18.1821L147.309 16.6393L145.696 14.7514L144.966 13.899L144.861 14.0117L144.075 14.8218L143.906 14.9979L143.927 15.0191L144.664 15.8785L145.871 17.2663L145.871 17.5622L144.678 18.9429Z" fill="#FF801A"/>
<path d="M105.363 41.3658C105.251 41.2672 105.124 41.1968 104.97 41.1475C104.823 41.0911 104.661 41.07 104.486 41.07L103.861 41.07L103.861 40.0767L105.37 40.0767L105.37 38.9848L103.861 38.9848L103.861 38.2874L102.542 38.2874L102.542 38.9848L101.763 38.9848C101.595 38.9848 101.433 39.013 101.279 39.0693C101.132 39.1257 100.998 39.1961 100.886 39.2877C100.774 39.3793 100.683 39.4849 100.62 39.6117C100.556 39.7315 100.528 39.8653 100.528 40.0133L100.528 41.1334C100.528 41.2743 100.556 41.4011 100.62 41.5279C100.683 41.6617 100.774 41.7674 100.886 41.859C100.998 41.9505 101.132 42.021 101.279 42.0774C101.433 42.1337 101.595 42.1619 101.763 42.1619L102.542 42.1619L102.542 43.4158L100.669 43.4158L100.669 44.5077L102.542 44.5077L102.542 45.2545L103.861 45.2545L103.861 44.5077L104.486 44.5077C104.661 44.5077 104.823 44.4796 104.97 44.4232C105.124 44.3668 105.251 44.2964 105.363 44.2048C105.468 44.1132 105.559 44.0076 105.63 43.8808C105.693 43.754 105.728 43.6201 105.728 43.4792L105.728 42.0844C105.728 41.9435 105.693 41.8167 105.63 41.6899C105.559 41.5701 105.468 41.4574 105.363 41.3658V41.3658ZM102.542 41.07L101.847 41.07L101.847 40.0767L102.542 40.0767L102.542 41.07ZM104.409 43.4158L103.861 43.4158L103.861 42.1619L104.409 42.1619L104.409 43.4158Z" fill="#FF801A"/>
<path d="M115.798 93.5593C115.685 93.4607 115.559 93.3902 115.412 93.3339C115.257 93.2845 115.096 93.2564 114.927 93.2564L114.303 93.2564L114.303 92.2701L115.812 92.2701L115.812 91.1782L114.303 91.1782L114.303 90.4808L112.977 90.4808L112.977 91.1782L112.205 91.1782C112.029 91.1782 111.868 91.2064 111.721 91.2627C111.566 91.3121 111.44 91.3895 111.321 91.4811C111.208 91.5727 111.124 91.6784 111.061 91.8052C110.998 91.9249 110.963 92.0588 110.963 92.1997L110.963 93.3268C110.963 93.4677 110.998 93.5945 111.061 93.7213C111.124 93.8481 111.208 93.9608 111.321 94.0524C111.44 94.144 111.566 94.2144 111.721 94.2708C111.868 94.3271 112.029 94.3553 112.205 94.3553L112.977 94.3553L112.977 95.6022L111.103 95.6022L111.103 96.7012L112.977 96.7012L112.977 97.4409L114.303 97.4409L114.303 96.7012L114.927 96.7012C115.096 96.7012 115.257 96.673 115.412 96.6166C115.559 96.5603 115.685 96.4898 115.798 96.3982C115.91 96.3067 115.994 96.194 116.064 96.0672C116.127 95.9403 116.162 95.8135 116.162 95.6727L116.162 94.2778C116.162 94.1369 116.127 94.0101 116.064 93.8833C115.994 93.7636 115.91 93.6509 115.798 93.5593ZM112.977 93.2564L112.282 93.2564L112.282 92.2701L112.977 92.2701L112.977 93.2564ZM114.843 95.6022L114.303 95.6022L114.303 94.3553L114.843 94.3553L114.843 95.6022Z" fill="#FF801A"/>
<path d="M76.2713 47.9666L76.8958 47.9666C77.0713 47.9666 77.2326 47.9385 77.38 47.8821C77.5273 47.8257 77.6607 47.7553 77.7659 47.6637C77.8782 47.5721 77.9694 47.4594 78.0326 47.3326C78.1027 47.2058 78.1308 47.072 78.1308 46.9381L78.1308 45.5362C78.1308 45.4024 78.1027 45.2685 78.0326 45.1488C77.9694 45.022 77.8782 44.9163 77.7659 44.8177C77.6607 44.7261 77.5274 44.6557 77.38 44.5993C77.2326 44.55 77.0713 44.5218 76.8958 44.5218L76.2713 44.5218L76.2713 43.5356L77.78 43.5356L77.78 42.4366L76.2713 42.4366L76.2713 41.7463L76.2713 38.2944L72.8401 38.2944L72.8401 36.9348L72.3559 36.9348L72.8401 34.8214L71.3245 34.8214L70.8263 36.9348L68.9808 36.9348L69.472 34.8214L67.9423 34.8214L67.4511 36.9348L66.0127 36.9348L66.0127 38.3085L67.1354 38.3085L66.96 39.0975L66.0127 39.0975L66.0127 40.4712L66.6512 40.4712L66.3635 41.711L67.8792 41.711L68.1669 40.4712L70.0333 40.4712L69.7386 41.711L71.2683 41.711L71.549 40.4712L72.8261 40.4712L72.8261 41.7462L74.9522 41.7462L74.9522 42.4366L74.1733 42.4366C73.9979 42.4366 73.8365 42.4648 73.6891 42.5212C73.5418 42.5775 73.4085 42.655 73.2962 42.7395C73.1769 42.8311 73.0927 42.9438 73.0295 43.0636C72.9664 43.1904 72.9313 43.3242 72.9313 43.4651L72.9313 44.5923C72.9313 44.7261 72.9664 44.86 73.0295 44.9868C73.0927 45.1136 73.1769 45.2263 73.2962 45.3108C73.4085 45.4024 73.5418 45.4799 73.6891 45.5362C73.8365 45.5926 73.9979 45.6137 74.1733 45.6137L74.9522 45.6137L74.9522 46.8677L73.0716 46.8677L73.0716 47.9666L74.9522 47.9666L74.9522 48.6922L74.9522 52.1511L78.3974 52.1511L78.3974 48.6922L76.2783 48.6922L76.2783 47.9666L76.2713 47.9666ZM76.2713 45.6137L76.8116 45.6137L76.8116 46.8677L76.2713 46.8677L76.2713 45.6137ZM70.3351 39.0975L68.4756 39.0975L68.6651 38.3085L70.5105 38.3085L70.3351 39.0975V39.0975ZM71.8647 39.0975L72.0402 38.3085L72.8261 38.3085L72.8261 39.0975L71.8647 39.0975ZM74.2505 44.5218L74.2505 43.5356L74.9522 43.5356L74.9522 44.5218L74.2505 44.5218Z" fill="#FF801A"/>
<path d="M20.831 146.211L17.3857 146.211L17.3857 149.669L20.831 149.669L20.831 146.211Z" fill="#FF801A"/>
<path d="M144.595 132.523C145.268 131.84 145.268 130.748 144.595 130.071C143.921 129.395 142.833 129.395 142.16 130.071C141.486 129.395 140.392 129.395 139.725 130.071C139.051 130.748 139.051 131.847 139.725 132.516C139.732 132.523 139.739 132.53 139.746 132.537L142.167 134.967L144.602 132.523L144.595 132.523Z" fill="#FF801A"/>
<path d="M106.984 68.2833C106.311 67.607 105.223 67.607 104.549 68.2833C103.876 67.607 102.781 67.607 102.115 68.2833C101.441 68.9595 101.441 70.0585 102.115 70.7277C102.122 70.7348 102.129 70.7418 102.136 70.7489L104.556 73.1792L106.991 70.7348C107.665 70.0514 107.665 68.9595 106.991 68.2833L106.984 68.2833Z" fill="#FF801A"/>
<path d="M69.3388 116.644L65.8936 116.644L65.8936 120.103L69.3388 120.103L69.3388 116.644Z" fill="#FF801A"/>
<path d="M19.0693 29.545L15.624 29.545L15.624 33.0039L19.0693 33.0039L19.0693 29.545Z" fill="#FF801A"/>
<path d="M46.5543 117.919C46.442 117.821 46.3087 117.75 46.1614 117.701C46.014 117.645 45.8526 117.617 45.6772 117.617L45.0527 117.617L45.0527 116.63L46.5613 116.63L46.5613 115.538L45.0527 115.538L45.0527 114.848L45.0527 111.389L41.6074 111.389L41.6074 114.848L43.7265 114.848L43.7265 115.538L42.9476 115.538C42.7722 115.538 42.6108 115.567 42.4635 115.623C42.3161 115.672 42.1828 115.75 42.0705 115.841C41.9583 115.933 41.867 116.039 41.8039 116.165C41.7407 116.285 41.7127 116.419 41.7127 116.567L41.7127 117.687C41.7127 117.828 41.7407 117.955 41.8039 118.081C41.867 118.208 41.9583 118.321 42.0705 118.413C42.1828 118.504 42.3161 118.575 42.4635 118.631C42.6108 118.687 42.7722 118.716 42.9476 118.716L43.7265 118.716L43.7265 119.969L41.853 119.969L41.853 121.061L43.7265 121.061L43.7265 121.801L43.7265 125.246L47.1718 125.246L47.1718 121.787L45.0457 121.787L45.0457 121.054L45.6702 121.054C45.8456 121.054 46.007 121.026 46.1543 120.97C46.3017 120.913 46.435 120.843 46.5473 120.751C46.6525 120.66 46.7438 120.547 46.8069 120.42C46.8771 120.294 46.9122 120.167 46.9122 120.026L46.9122 118.631C46.9122 118.49 46.8771 118.363 46.8069 118.236C46.7438 118.117 46.6525 118.004 46.5473 117.912L46.5543 117.919ZM43.7335 117.617L43.0389 117.617L43.0389 116.63L43.7335 116.63L43.7335 117.617ZM45.6 119.969L45.0527 119.969L45.0527 118.716L45.6 118.716L45.6 119.969Z" fill="#FF801A"/>
<path d="M137.62 30.9187C137.507 30.8271 137.381 30.7496 137.227 30.7003C137.079 30.651 136.918 30.6228 136.75 30.6228L136.125 30.6228L136.125 29.6366L137.634 29.6366L137.634 28.5376L136.125 28.5376L136.125 27.8473L134.799 27.8473L134.799 28.5376L134.02 28.5376C133.852 28.5376 133.69 28.5658 133.536 28.6222C133.389 28.6785 133.255 28.749 133.143 28.8406C133.031 28.9321 132.94 29.0378 132.876 29.1646C132.813 29.2914 132.785 29.4253 132.785 29.5662L132.785 30.6933C132.785 30.8271 132.813 30.961 132.876 31.0878C132.94 31.2146 133.031 31.3203 133.143 31.4118C133.255 31.5034 133.389 31.5809 133.536 31.6302C133.69 31.6866 133.852 31.7148 134.02 31.7148L134.799 31.7148L134.799 32.9687L132.925 32.9687L132.925 34.0606L134.799 34.0606L134.799 34.8073L136.125 34.8073L136.125 34.0606L136.75 34.0606C136.918 34.0606 137.079 34.0324 137.227 33.9831C137.381 33.9268 137.507 33.8493 137.62 33.7577C137.732 33.6661 137.816 33.5604 137.886 33.4336C137.95 33.3068 137.985 33.173 137.985 33.0391L137.985 31.6373C137.985 31.5034 137.95 31.3696 137.886 31.2498C137.816 31.123 137.732 31.0173 137.62 30.9187ZM134.799 30.6228L134.104 30.6228L134.104 29.6366L134.799 29.6366L134.799 30.6228ZM136.665 32.9687L136.125 32.9687L136.125 31.7148L136.665 31.7148L136.665 32.9687Z" fill="#FF801A"/>
<path d="M139.907 26.1425L138.672 31.3273L142.138 31.3273L142.138 29.2421L141.128 29.2421L141.872 26.1425L141.128 23.0358L142.138 23.0358L142.138 20.9577L138.672 20.9577L139.907 26.1425Z" fill="#FF801A"/>
<path d="M121.375 31.3132L121.375 34.7932L126.539 33.5534L131.704 34.7932L131.704 31.3132L129.634 31.3132L129.634 32.3347L126.539 31.588L123.452 32.3347L123.452 31.3132L121.375 31.3132Z" fill="#FF801A"/>
<path d="M39.8747 93.989L39.8747 90.5089L37.7977 90.5089L37.7977 91.5304L34.7103 90.7837L31.6159 91.5304L31.6159 90.5089L29.5459 90.5089L29.5459 93.989L34.7103 92.7491L39.8747 93.989Z" fill="#FF801A"/>
<path d="M39.5096 129.811L36.4222 129.064L33.3278 129.811L33.3278 128.789L31.2578 128.789L31.2578 135.749L41.5866 135.749L41.5866 128.789L39.5166 128.789L39.5166 129.811L39.5096 129.811ZM39.6079 132.234L39.6079 133.657L33.2927 133.657L33.2927 132.234L31.4332 132.234L36.4222 131.037L41.4112 132.234L39.6079 132.234Z" fill="#FF801A"/>
<path d="M107.447 128.796L107.447 121.836L102.283 123.076L97.1182 121.836L97.1182 128.796L102.283 127.556L107.447 128.796ZM99.1951 125.316L99.1951 124.295L102.283 125.042L105.377 124.295L105.377 126.331L102.29 125.584L99.1951 126.331L99.1951 125.309L99.1951 125.316Z" fill="#FF801A"/>
<path d="M109.706 40.0626L110.941 34.8778L107.475 34.8778L107.475 36.963L108.485 36.963L107.741 40.0626L108.485 43.1693L107.475 43.1693L107.475 45.2474L110.941 45.2474L109.706 40.0626Z" fill="#FF801A"/>
<path d="M55.4522 29.545C56.3924 29.545 57.1573 28.7771 57.1573 27.8332C57.1573 26.8892 56.3924 26.1213 55.4522 26.1213C54.5119 26.1213 53.7471 26.8892 53.7471 27.8332C53.7471 28.7771 54.5119 29.545 55.4522 29.545Z" fill="#FF801A"/>
<path d="M52.8977 34.5396L53.0731 34.7087L53.0942 34.6876L53.9502 33.9408L55.3326 32.7362L55.6273 32.7362L57.0026 33.9338L57.8657 34.6876L57.8867 34.7087L58.0621 34.5396L58.8691 33.7506L58.9743 33.645L58.1323 32.9194L56.2448 31.2921L54.7081 31.2921L52.8346 32.9123L51.9785 33.645L52.0908 33.7506L52.8977 34.5396Z" fill="#FF801A"/>
<path d="M58.5673 35.8288L55.4798 35.0821L52.3854 35.8288L52.3854 34.8073L50.3154 34.8073L50.3154 40.6684L55.4798 39.4286L60.6442 40.6684L60.6442 34.8073L58.5743 34.8073L58.5743 35.8288L58.5673 35.8288ZM58.5673 38.2099L55.4798 37.4631L52.3854 38.2099L52.3854 37.7942L55.4798 37.0545L58.5673 37.7942L58.5673 38.2099Z" fill="#FF801A"/>
<path d="M112.836 48.6359C112.927 48.3893 113.047 48.178 113.208 47.9948C113.362 47.8187 113.545 47.6708 113.748 47.5721C113.952 47.4665 114.169 47.4172 114.401 47.4172L114.401 45.346C113.931 45.346 113.482 45.4517 113.061 45.6631C112.64 45.8744 112.275 46.1632 111.959 46.5366C111.643 46.9099 111.398 47.3397 111.208 47.8328C111.026 48.3259 110.935 48.8543 110.935 49.4249L110.935 51.6087C110.935 52.1793 111.026 52.7076 111.208 53.2008C111.391 53.6939 111.643 54.1236 111.959 54.497C112.275 54.8703 112.64 55.1592 113.061 55.3705C113.482 55.5818 113.931 55.6875 114.401 55.6875L114.401 53.6164C114.169 53.6164 113.952 53.5671 113.748 53.4614C113.545 53.3558 113.362 53.2078 113.208 53.0247C113.054 52.8415 112.927 52.6231 112.836 52.3836C112.745 52.1441 112.703 51.8834 112.703 51.6157L112.703 49.4319C112.703 49.1572 112.745 48.9036 112.836 48.657L112.836 48.6359Z" fill="#FF801A"/>
<path d="M29.4551 47.0015C29.4551 46.0575 28.6903 45.2897 27.75 45.2897C26.8098 45.2897 26.0449 46.0575 26.0449 47.0015C26.0449 47.9455 26.8098 48.7133 27.75 48.7133C28.6903 48.7133 29.4551 47.9455 29.4551 47.0015Z" fill="#FF801A"/>
<path d="M22.5713 43.4933C23.5116 43.4933 24.2764 42.7254 24.2764 41.7815C24.2764 40.8375 23.5116 40.0696 22.5713 40.0696C21.631 40.0696 20.8662 40.8375 20.8662 41.7815C20.8662 42.7254 21.631 43.4933 22.5713 43.4933Z" fill="#FF801A"/>
<path d="M32.9424 43.4933C33.8827 43.4933 34.6475 42.7254 34.6475 41.7815C34.6475 40.8375 33.8827 40.0696 32.9424 40.0696C32.0021 40.0696 31.2373 40.8375 31.2373 41.7815C31.2373 42.7254 32.0021 43.4933 32.9424 43.4933Z" fill="#FF801A"/>
<path d="M27.7422 38.2733C28.6825 38.2733 29.4473 37.5054 29.4473 36.5614C29.4473 35.6174 28.6825 34.8496 27.7422 34.8496C26.8019 34.8496 26.0371 35.6174 26.0371 36.5614C26.0371 37.5054 26.8019 38.2733 27.7422 38.2733Z" fill="#FF801A"/>
<path d="M25.1047 43.3172L24.3609 44.1696L24.3398 44.1978L24.5082 44.3668L25.3012 45.184L25.3994 45.2897L26.1291 44.4373L27.743 42.5564L29.3569 44.4373L30.0866 45.2897L30.1919 45.184L30.9778 44.3668L31.1462 44.1978L31.1251 44.1696L30.3884 43.3172L29.1815 41.9294L29.1815 41.6265L30.3743 40.2528L31.1251 39.3863L31.1462 39.3581L30.9778 39.1891L30.1919 38.3719L30.0866 38.2662L29.3639 39.1116L27.743 41.0066L26.1221 39.1116L25.3994 38.2662L25.3012 38.3719L24.5082 39.1891L24.3398 39.3581L24.3609 39.3863L25.1117 40.2528L26.3046 41.6265L26.3046 41.9294L25.1047 43.3172Z" fill="#FF801A"/>
<path d="M32.5772 50.0589C32.7877 49.6362 32.893 49.1853 32.893 48.7134L30.83 48.7133C30.83 48.9458 30.7809 49.1642 30.6756 49.3685C30.5704 49.5728 30.423 49.7559 30.2406 49.9109C30.0582 50.0659 29.8477 50.1927 29.6021 50.2843C29.3635 50.3759 29.1039 50.4181 28.8372 50.4181L26.662 50.4181C26.3883 50.4181 26.1357 50.3759 25.8902 50.2843C25.6446 50.1927 25.4341 50.073 25.2516 49.9109C25.0762 49.7559 24.9288 49.5728 24.8306 49.3685C24.7254 49.1642 24.6762 48.9458 24.6762 48.7133L22.6133 48.7133C22.6133 49.1853 22.7185 49.6362 22.929 50.0589C23.1395 50.4815 23.4272 50.8479 23.7991 51.1649C24.171 51.4819 24.599 51.7284 25.0902 51.9186C25.5814 52.1018 26.1077 52.1934 26.676 52.1934L28.8513 52.1934C29.4196 52.1934 29.9459 52.1018 30.4371 51.9186C30.9283 51.7355 31.3563 51.4819 31.7282 51.1649C32.1001 50.8479 32.3878 50.4815 32.5983 50.0589L32.5772 50.0589Z" fill="#FF801A"/>
<path d="M79.8008 109.649C79.8008 110.593 80.5656 111.361 81.5059 111.361C82.4461 111.361 83.211 110.593 83.211 109.649C83.211 108.705 82.4461 107.937 81.5059 107.937C80.5656 107.937 79.8008 108.705 79.8008 109.649Z" fill="#FF801A"/>
<path d="M102.282 121.808C103.223 121.808 103.987 121.04 103.987 120.096C103.987 119.152 103.223 118.384 102.282 118.384C101.342 118.384 100.577 119.152 100.577 120.096C100.577 121.04 101.342 121.808 102.282 121.808Z" fill="#FF801A"/>
<path d="M77.4636 113.848C77.8355 114.165 78.2635 114.411 78.7547 114.601C79.2459 114.785 79.7722 114.876 80.3405 114.876L82.5158 114.876C83.0841 114.876 83.6104 114.785 84.1016 114.601C84.5928 114.418 85.0208 114.165 85.3927 113.848C85.7646 113.531 86.0523 113.164 86.2628 112.742C86.4733 112.319 86.5785 111.868 86.5785 111.396L84.5156 111.396C84.5156 111.629 84.4665 111.847 84.3612 112.051C84.2559 112.256 84.1086 112.439 83.9262 112.594C83.7437 112.749 83.5262 112.876 83.2876 112.967C83.049 113.059 82.7894 113.101 82.5228 113.101L80.3476 113.101C80.0739 113.101 79.8213 113.059 79.5757 112.967C79.3301 112.876 79.1196 112.756 78.9372 112.594C78.7617 112.439 78.6144 112.256 78.5162 112.051C78.4109 111.847 78.3618 111.629 78.3618 111.396L76.2988 111.396C76.2988 111.868 76.4041 112.319 76.6146 112.742C76.8251 113.164 77.1128 113.531 77.4847 113.848L77.4636 113.848Z" fill="#FF801A"/>
<path d="M127.508 22.1623C127.333 22.0073 127.186 21.8241 127.087 21.6199C126.982 21.4156 126.933 21.1972 126.933 20.9647L124.87 20.9647C124.87 21.4367 124.975 21.8875 125.186 22.3102C125.396 22.7329 125.684 23.0992 126.056 23.4162C126.428 23.7332 126.856 23.9798 127.347 24.17C127.838 24.3532 128.365 24.4447 128.933 24.4447L131.108 24.4447C131.676 24.4447 132.203 24.3532 132.694 24.17C133.185 23.9868 133.613 23.7332 133.985 23.4162C134.357 23.0992 134.645 22.7329 134.855 22.3102C135.066 21.8875 135.171 21.4367 135.171 20.9647L133.108 20.9647C133.108 21.1972 133.059 21.4156 132.954 21.6199C132.848 21.8241 132.701 22.0073 132.518 22.1623C132.336 22.3173 132.119 22.4441 131.88 22.5356C131.641 22.6272 131.382 22.6695 131.115 22.6695L128.94 22.6695C128.666 22.6695 128.414 22.6272 128.168 22.5356C127.922 22.4441 127.712 22.3243 127.53 22.1623L127.508 22.1623Z" fill="#FF801A"/>
<path d="M127.249 46.5295C126.933 46.1562 126.568 45.8673 126.147 45.656C125.726 45.4447 125.277 45.339 124.807 45.339L124.807 47.4101C125.038 47.4101 125.256 47.4594 125.459 47.5651C125.663 47.6708 125.845 47.8117 126 48.0019C126.154 48.185 126.28 48.4034 126.371 48.6429C126.463 48.8824 126.505 49.1431 126.505 49.4108L126.505 51.5946C126.505 51.8693 126.463 52.1229 126.371 52.3695C126.28 52.6161 126.161 52.8274 126 53.0106C125.845 53.1867 125.663 53.3346 125.459 53.4332C125.256 53.5389 125.038 53.5882 124.807 53.5882L124.807 55.6593C125.277 55.6593 125.726 55.5537 126.147 55.3423C126.568 55.131 126.933 54.8422 127.249 54.4688C127.564 54.0954 127.81 53.6657 127.999 53.1726C128.182 52.6795 128.273 52.1511 128.273 51.5805L128.273 49.3967C128.273 48.8261 128.182 48.2977 127.999 47.8046C127.817 47.3115 127.564 46.8818 127.249 46.5084L127.249 46.5295Z" fill="#FF801A"/>
<path d="M123.796 81.2523C123.481 80.879 123.116 80.5902 122.695 80.3788C122.281 80.1675 121.832 80.0689 121.369 80.0689L110.97 80.0689C110.507 80.0689 110.065 80.1745 109.651 80.3788C109.23 80.5902 108.865 80.879 108.549 81.2523C108.233 81.6257 107.988 82.0554 107.798 82.5486C107.616 83.0417 107.524 83.57 107.524 84.1406L107.524 86.3245C107.524 86.8951 107.616 87.4234 107.798 87.9165C107.981 88.4097 108.233 88.8394 108.549 89.2127C108.865 89.5861 109.23 89.8749 109.651 90.0863C110.072 90.2976 110.521 90.4033 110.991 90.4033L110.991 88.3322C110.759 88.3322 110.542 88.2829 110.338 88.1772C110.135 88.0715 109.952 87.9236 109.798 87.7404C109.643 87.5573 109.517 87.3389 109.426 87.0994C109.335 86.8598 109.293 86.5992 109.293 86.3315L109.293 84.1477C109.293 83.8729 109.335 83.6193 109.426 83.3728C109.517 83.1262 109.636 82.9149 109.798 82.7317C109.952 82.5556 110.135 82.4077 110.338 82.309C110.535 82.2104 110.752 82.1541 110.97 82.1541L110.97 83.5418L110.97 83.5912C110.998 85.5073 112.548 87.0571 114.464 87.0571L117.86 87.0571C119.776 87.0571 121.327 85.5073 121.355 83.5912L121.355 83.5418L121.355 82.1541C121.579 82.1541 121.797 82.2104 122 82.309C122.204 82.4147 122.386 82.5626 122.54 82.7458C122.695 82.929 122.821 83.1403 122.912 83.3869C123.004 83.6264 123.046 83.887 123.046 84.1547L123.046 86.3385C123.046 86.6133 123.004 86.8669 122.912 87.1135C122.821 87.36 122.702 87.5714 122.54 87.7545C122.386 87.9306 122.204 88.0786 122 88.1772C121.797 88.2829 121.579 88.3322 121.348 88.3322L121.348 90.4033C121.818 90.4033 122.267 90.2976 122.688 90.0863C123.109 89.8749 123.474 89.5861 123.789 89.2127C124.105 88.8394 124.351 88.4097 124.54 87.9165C124.723 87.4234 124.814 86.8951 124.814 86.3245L124.814 84.1406C124.814 83.57 124.723 83.0417 124.54 82.5486C124.358 82.0554 124.105 81.6257 123.789 81.2523L123.796 81.2523Z" fill="#FF801A"/>
<path d="M43.509 88.6351C43.6002 88.3885 43.7195 88.1772 43.8809 87.994C44.0353 87.8179 44.2177 87.67 44.4212 87.5713C44.6247 87.4657 44.8422 87.4164 45.0737 87.4164L45.0737 85.3453C44.6036 85.3453 44.1545 85.4509 43.7335 85.6623C43.3125 85.8736 42.9476 86.1624 42.6319 86.5358C42.3161 86.9091 42.0705 87.3389 41.8811 87.832C41.6986 88.3251 41.6074 88.8535 41.6074 89.4241L41.6074 91.6079C41.6074 92.1785 41.6986 92.7069 41.8811 93.2C42.0635 93.6931 42.3161 94.1228 42.6319 94.4962C42.9476 94.8695 43.3125 95.1584 43.7335 95.3697C44.1545 95.5811 44.6036 95.6867 45.0737 95.6867L45.0737 93.6156C44.8422 93.6156 44.6247 93.5663 44.4212 93.4606C44.2177 93.355 44.0353 93.207 43.8809 93.0239C43.7265 92.8407 43.6002 92.6223 43.509 92.3828C43.4178 92.1433 43.3757 91.8826 43.3757 91.6149L43.3757 89.4311C43.3757 89.1564 43.4178 88.9028 43.509 88.6562L43.509 88.6351Z" fill="#FF801A"/>
<path d="M129.522 45.3038L131.663 45.3038L132.989 38.2803L130.821 38.2803L129.522 45.3038Z" fill="#FF801A"/>
<path d="M33.8543 57.5966L34.5911 56.7371L34.6122 56.716L34.4508 56.5469L33.6579 55.7298L33.5526 55.6241L32.8299 56.4765L31.209 58.3574L31.209 59.9072L32.8299 61.7952L33.5526 62.6476L33.6579 62.5419L34.4508 61.7247L34.6122 61.5556L34.5911 61.5275L33.8403 60.661L32.6545 59.2873L32.6545 58.9844L33.8543 57.5966Z" fill="#FF801A"/>
<path d="M40.766 60.6751L40.0152 61.5416L39.9941 61.5697L40.1625 61.7388L40.9484 62.556L41.0537 62.6616L41.7764 61.8093L43.3973 59.9213L43.3973 58.3715L41.7764 56.4906L41.0537 55.6382L40.9484 55.7439L40.1625 56.561L39.9941 56.7301L40.0152 56.7512L40.752 57.6107L41.9589 58.9985L41.9589 59.3014L40.766 60.6751Z" fill="#FF801A"/>
<path d="M39.3483 55.6382L37.1801 55.6382L35.875 62.6616L38.0222 62.6616L39.3483 55.6382Z" fill="#FF801A"/>
<path d="M21.4766 20.9929L23.6237 20.9929L24.9429 13.9694L22.7817 13.9694L21.4766 20.9929Z" fill="#FF801A"/>
<path d="M45.2146 107.353L38.2188 106.021L38.2187 108.191L45.2146 109.501L45.2146 107.353Z" fill="#FF801A"/>
<path d="M48.6807 95.6092C48.6807 96.5532 49.4455 97.3211 50.3858 97.3211C51.326 97.3211 52.0909 96.5532 52.0909 95.6092C52.0909 94.6653 51.326 93.8974 50.3858 93.8974C49.4455 93.8974 48.6807 94.6653 48.6807 95.6092Z" fill="#FF801A"/>
<path d="M51.0735 100.667C51.0735 100.667 47.7896 102.104 46.8844 102.104C45.9792 102.104 43.0953 100.667 43.0953 100.667C43.0953 100.667 42.8567 100.4 43.0462 99.9205C43.2356 99.4344 43.797 99.5472 43.797 99.5472L46.8844 100.547C46.8844 100.547 47.3756 100.66 47.565 100.153C47.7545 99.6458 47.2633 99.2513 47.2633 99.2513C47.2633 99.2513 43.1444 97.4338 41.8814 97.4338C41.1306 97.4338 40.0079 98.0678 39.208 98.5891L39.4185 97.4549L37.2573 97.4549L35.9521 104.478L38.0993 104.478L38.401 102.872C38.7238 102.752 39.5448 102.485 40.3166 102.485C41.8323 102.485 44.9407 104.394 46.2669 104.394C47.5931 104.394 51.7822 102.238 51.7822 102.238C51.7822 102.238 52.3295 101.752 52.0418 101.111C51.7541 100.47 51.0805 100.674 51.0805 100.674L51.0735 100.667Z" fill="#FF801A"/>
<path d="M117.643 28.6644L119.242 25.0083L121.158 31.1864L123.333 27.4105L123.979 28.6644L128.308 28.6644L128.308 27.1921L124.87 27.1921L123.403 24.3531L121.565 27.5514L119.467 20.8238L116.688 27.1921L110.899 27.1921L110.899 28.6644L111.636 28.6644L117.643 28.6644Z" fill="#FF801A"/>
<path d="M152.888 142.716L145.612 123.555L145.149 122.343L144.784 121.371L143.64 118.356L134.399 94.0242L134.378 93.9679C133.943 92.8548 133.557 91.7206 133.234 90.5794C131.269 83.7462 131.255 76.4902 133.206 69.6499C133.515 68.551 133.88 67.459 134.294 66.3883C134.322 66.3108 134.35 66.2403 134.378 66.1628L134.462 65.9515L135.199 64.0001L141.156 48.3118L141.977 46.1421L143.64 41.7674L144.629 39.1539L144.931 38.3649L145.45 36.9912L148.931 27.8402L149.064 27.481L159.498 -1.02591e-05L141.275 6.97414L138.721 7.95334L113.854 17.4706L112.829 17.858L105.068 20.8309L103.005 21.6198L97.0832 23.8882L95.1676 24.6208L93.6029 25.2196C92.9784 25.4662 92.3539 25.6916 91.7224 25.903C91.2031 26.0791 90.6769 26.2411 90.1506 26.3961C86.7474 27.3682 83.246 27.8543 79.7516 27.8543C77.9904 27.8543 76.2292 27.7346 74.482 27.4809C73.9206 27.4035 73.3663 27.3119 72.8049 27.2062C72.6856 27.1851 72.5664 27.1639 72.4471 27.1358C72.0822 27.0653 71.7243 26.9878 71.3665 26.9033C71.1279 26.854 70.8893 26.7976 70.6508 26.7342C70.2157 26.6286 69.7947 26.5158 69.3667 26.3961C69.3597 26.3961 69.3526 26.389 69.3526 26.389C69.1562 26.3327 68.9667 26.2763 68.7773 26.22C67.8089 25.9311 66.8546 25.593 65.9074 25.2196L27.7287 10.6162L27.2585 10.433L18.0243 6.89663L16.0105 6.12876L10.397 3.98016L9.12697 3.49408L-0.00195312 -3.8147e-05L5.64661 14.8782L6.75528 17.8017L7.2254 19.0345L7.93411 20.8942L9.27432 24.4306L9.87076 26.0086L24.2904 63.979L25.1114 66.1417L25.1114 66.1628C28.6198 75.0954 28.6198 85.0353 25.1184 93.9678L24.4167 95.8206L24.2763 96.1869L16.1087 117.708L15.7579 118.617L11.5478 129.712L10.4672 132.565L7.91303 139.279L6.94471 141.836L-0.00198112 160.131L9.03573 156.672L9.08485 156.672L9.08485 156.651L10.5233 156.101L13.8703 154.826L38.282 145.485L40.5975 144.597L52.5613 140.018L54.1331 139.42L55.5715 138.87L58.5888 137.715L65.9284 134.904C66.9458 134.495 67.9843 134.136 69.0298 133.826L69.0439 133.826C69.4298 133.713 69.8227 133.601 70.2157 133.502C73.3382 132.685 76.5449 132.276 79.7516 132.276C81.4848 132.276 83.2179 132.396 84.9441 132.636C85.6387 132.734 86.3404 132.847 87.0351 132.988C89.2454 133.425 91.4347 134.059 93.5678 134.904L101.932 138.102L104.016 138.898L117.888 144.21L120.814 145.33L135.725 151.036L138.679 152.17L140.644 152.917L141.395 153.206L159.491 160.131L154.2 146.197L152.881 142.716L152.888 142.716ZM142.545 39.1539L141.191 39.1539L141.374 38.3649L142.84 38.3649L142.545 39.1539ZM113.643 20.9647L115.488 20.9647L115.32 21.7467L113.454 21.7467L113.643 20.9647ZM113.959 19.584L113.973 19.5206L116.008 18.7457L115.811 19.584L113.959 19.584V19.584ZM25.0201 11.6729C24.8447 11.8138 24.6412 11.9265 24.4167 12.011C24.1781 12.1026 23.9185 12.1449 23.6448 12.1449L21.4416 12.1449C21.1679 12.1449 20.9083 12.1026 20.6627 12.011C20.4101 11.9194 20.1996 11.7997 20.0171 11.6376C19.8347 11.4827 19.6944 11.2995 19.5891 11.0952C19.4839 10.8839 19.4277 10.6655 19.4277 10.433L17.3577 10.433L17.6595 8.85502L25.0201 11.6729ZM9.09189 18.4498L8.8463 17.8017L9.09189 17.8017L9.09189 18.4498ZM121.355 143.435L121.355 143.203C121.123 143.203 120.905 143.153 120.702 143.048C120.498 142.942 120.316 142.794 120.162 142.611C120.091 142.533 120.035 142.442 119.979 142.35L119.979 137.856C120.035 137.764 120.091 137.68 120.162 137.602C120.316 137.426 120.498 137.278 120.702 137.179C120.905 137.074 121.123 137.024 121.355 137.024L121.355 136.637L124.751 136.637L124.751 129.536L128.484 132.248L127.859 132.248L126.554 139.279L128.701 139.279L129.838 133.234L132.694 135.313L133.304 135.756C132.483 135.883 131.845 136.588 131.845 137.447C131.845 138.391 132.61 139.159 133.55 139.159C134.49 139.159 135.255 138.391 135.255 137.447C135.255 137.348 135.241 137.25 135.227 137.158L140.04 140.659L136.455 135.665C136.609 135.707 136.778 135.735 136.946 135.735C137.886 135.735 138.651 134.967 138.651 134.023C138.651 133.079 137.886 132.312 136.946 132.312C136.006 132.312 135.269 133.051 135.241 133.974L134.736 133.263L134.006 132.248L135.283 132.248L134.392 128.508L135.486 129.776L136.216 130.628L136.321 130.522L137.114 129.712L137.283 129.543L137.262 129.522L136.518 128.662L135.318 127.275L135.318 126.979L136.511 125.605L137.262 124.739L137.283 124.718L137.114 124.548L136.321 123.738L136.216 123.633L135.493 124.478L134.364 125.795L135.29 121.9L131.824 121.9L131.824 123.978L132.834 123.978L132.09 127.085L132.834 130.184L132.518 130.184L121.558 114.89L124.807 114.89L124.807 111.431L121.362 111.431L121.362 114.623L114.036 104.401L119.6 104.401C119.6 104.401 119.621 104.401 119.628 104.401C119.635 104.401 119.649 104.401 119.656 104.401C120.597 104.387 121.348 103.619 121.348 102.675C121.348 102.668 121.348 102.661 121.348 102.654L121.348 99.1949C121.348 98.2369 120.576 97.462 119.621 97.462C118.667 97.462 117.895 98.2369 117.895 99.1949C117.895 99.2161 117.895 99.2372 117.895 99.2583L117.895 100.949L112.724 100.949L112.724 102.597L103.869 90.2413L104.023 90.2413L104.023 88.1631L103.005 88.1631L103.749 85.0564L103.005 81.9568L104.023 81.9568L104.023 79.8716L103.995 79.8716L103.995 76.617L103.995 73.1581L100.55 73.1581L100.55 76.617L102.255 76.617L102.255 77.9555L98.0726 77.9555C98.1709 76.5536 98.5357 75.1588 99.1743 73.8414L99.1953 73.7992L99.2093 73.7569L107.054 54.5322L108.366 51.3199L106.149 52.2075L107.44 45.3461L105.279 45.3461L103.974 52.3695L105.749 52.3695L105.153 52.609L103.756 53.1726C103.462 52.6443 102.9 52.2779 102.248 52.2779C101.307 52.2779 100.543 53.0458 100.543 53.9968C100.543 54.1518 100.564 54.2997 100.606 54.4406L98.6129 55.2367L98.6129 55.0676L96.5429 53.9827L98.6129 52.7358L98.6129 50.5027L100.051 50.5027L100.051 48.7627L97.5464 48.7627L99.0129 47.0508L99.0129 45.501L97.399 43.6201L96.6693 42.7677L96.564 42.8734L95.7711 43.6835L95.6027 43.8526L95.6237 43.8737L96.3675 44.7332L97.5674 46.121L97.5674 46.4168L96.3745 47.7905L95.6237 48.657L95.6027 48.6781L95.7711 48.8472L96.564 49.6573L96.6693 49.763L97.0411 49.3262L97.0411 52.7077L94.9712 53.9545L97.0411 55.0394L97.0411 55.8425L93.5818 57.2303L93.5818 53.9686L90.1155 53.9686L90.1155 55.7086L91.4908 55.7086L91.4908 58.0686L88.9016 59.1112L88.7332 59.1112L88.7332 52.1511L90.1155 52.1511L90.1155 50.4111L86.6492 50.4111L86.6492 53.9193C86.6492 53.9193 86.6351 53.9193 86.6211 53.9193C85.6809 53.9193 84.916 54.6872 84.916 55.6312C84.916 56.5751 85.6808 57.343 86.6211 57.343C86.6281 57.343 86.6351 57.343 86.6492 57.343L86.6492 60.0129L85.9545 60.2947L85.9054 60.3158L85.8633 60.3369C85.0072 60.7455 84.095 61.0485 83.1688 61.2246L83.1688 59.2098L79.7235 59.2098L79.7235 61.3302C77.9483 61.1048 76.2783 60.4356 74.8258 59.3718L72.3208 57.5755L72.3208 56.9837L73.0435 56.5469C73.3452 57.026 73.8785 57.343 74.489 57.343C75.4292 57.343 76.1941 56.5751 76.1941 55.6312C76.1941 54.6872 75.4292 53.9193 74.489 53.9193C73.7803 53.9193 73.1768 54.349 72.9172 54.969L72.3208 54.659L72.3208 50.4956L69.3035 50.4956L69.3035 52.2357L70.742 52.2357L70.742 54.659L72.7909 55.7298L72.7909 55.758L71.156 56.7442L69.4579 55.5255L69.4579 54.0109L68.0194 54.0109L68.0194 51.5876L65.9495 50.5097L68.0194 49.2558L68.0194 47.0297L69.4579 47.0297L69.4579 45.2826L66.4477 45.2826L66.4477 49.2558L64.918 50.1786L65.8442 45.2404L63.683 45.2404L62.6726 50.6577L57.859 47.1988L58.8765 46.0153L58.8765 44.4655L57.2626 42.5846L56.5328 41.7322L56.4346 41.8378L55.6417 42.648L55.4803 42.8241L55.4943 42.8452L56.2381 43.7047L57.438 45.0924L57.438 45.3883L56.6311 46.3252L48.4564 40.4571L48.4564 39.1327L47.4811 39.1327L47.6565 38.3508L48.4564 38.3508L48.4564 36.97L47.9793 36.97L48.4564 34.8566L46.9408 34.8566L46.4496 36.97L44.5972 36.97L45.0884 34.8566L43.5587 34.8566L43.1447 36.646L38.0715 33.0039L38.0575 33.0039C38.0575 33.0039 38.0925 33.0039 38.1066 33.0039C39.0468 33.0039 39.8117 32.236 39.8117 31.2921C39.8117 30.3481 39.0468 29.5802 38.1066 29.5802C37.1663 29.5802 36.4015 30.3481 36.4015 31.2921C36.4015 31.5034 36.4436 31.7007 36.5138 31.8909L36.5067 31.8909L33.7702 29.9184C33.9737 29.6929 34.1421 29.4393 34.2754 29.1716C34.4789 28.749 34.5841 28.2981 34.5841 27.8261L32.5212 27.8261C32.5212 28.0586 32.472 28.277 32.3668 28.4813C32.3107 28.5869 32.2475 28.6856 32.1773 28.7771L26.7252 24.8674L19.4979 19.6826L24.6833 26.9244L25.3289 27.8261L24.2974 27.8261C24.2974 28.2981 24.4027 28.749 24.6132 29.1716C24.8237 29.5873 25.1114 29.9606 25.4762 30.2776C25.8481 30.5946 26.2762 30.8412 26.7673 31.0244C27.0901 31.1512 27.441 31.2357 27.7988 31.2709L27.862 31.3555L26.62 31.3555C26.0586 31.3555 25.5254 31.447 25.0342 31.6372C24.543 31.8204 24.115 32.067 23.7431 32.384C23.3782 32.701 23.0835 33.0743 22.88 33.49C22.6695 33.9127 22.5642 34.3635 22.5642 34.8355L24.6272 34.8355C24.6272 34.603 24.6833 34.3846 24.7886 34.1803C24.8938 33.9761 25.0342 33.7929 25.2166 33.6379C25.4061 33.4759 25.6166 33.3561 25.8552 33.2646C26.0937 33.173 26.3533 33.1307 26.62 33.1307L28.7952 33.1307C28.9145 33.1307 29.0338 33.1377 29.1531 33.1589L36.3243 43.1693C36.3103 43.3454 36.2682 43.5074 36.212 43.6694C36.1208 43.916 36.0015 44.1273 35.8401 44.3105C35.6858 44.4866 35.5033 44.6275 35.2998 44.7332C35.0893 44.8388 34.8718 44.8881 34.6403 44.8881L34.6403 46.9663C35.1174 46.9663 35.5595 46.8606 35.9805 46.6493C36.4015 46.438 36.7734 46.1491 37.0821 45.7758C37.2856 45.5362 37.468 45.2685 37.6154 44.9727L41.5869 50.5097C41.5869 50.5097 41.5729 50.5097 41.5659 50.5097L34.6473 50.5097L34.6473 53.9686L41.5659 53.9686C42.3307 53.9686 42.9763 53.4614 43.2008 52.764L48.4775 60.1326L48.4775 61.3232L49.3265 61.3232L49.4458 61.4923L48.7441 64.4228L49.4879 67.5295L48.4775 67.5295L48.4775 69.6076L51.9438 69.6076L50.7088 64.4228L50.9194 63.5422L55.2698 69.6147L55.0312 69.6147L53.7121 76.6381L55.8732 76.6381L56.7854 71.7281L59.2343 75.1447C59.5781 75.6096 59.8729 76.0957 60.1325 76.5959L58.8835 76.5959L58.8835 80.097L55.4522 80.097L55.4522 83.5559L58.8835 83.5559L58.8835 87.0641L59.8869 87.0641L58.9045 89.4804L58.9045 89.4382C58.9045 88.8676 58.8133 88.3392 58.6309 87.8461C58.4484 87.353 58.1958 86.9233 57.8801 86.5499C57.5643 86.1765 57.1994 85.8877 56.7784 85.6764C56.3574 85.465 55.9083 85.3593 55.4382 85.3593L55.4382 87.4305C55.6698 87.4305 55.8873 87.4798 56.0908 87.5854C56.2943 87.6911 56.4767 87.839 56.6311 88.0222C56.7854 88.2054 56.9117 88.4167 57.003 88.6633C57.0942 88.9028 57.1363 89.1634 57.1363 89.4311L57.1363 91.615C57.1363 91.8897 57.0942 92.1433 57.003 92.3899C56.9117 92.6364 56.7925 92.8478 56.6311 93.0309C56.4767 93.207 56.2943 93.355 56.0908 93.4536C55.8873 93.5593 55.6698 93.6086 55.4382 93.6086L55.4382 95.6797C55.7961 95.6797 56.1259 95.6022 56.4556 95.4824L56.4416 95.5106L52.3297 105.598L51.7263 107.085C51.4316 106.564 50.8772 106.204 50.2317 106.204C49.2844 106.204 48.5126 106.979 48.5055 107.93C47.5513 107.93 46.7794 108.705 46.7794 109.663C46.7794 110.621 47.5513 111.396 48.5055 111.396C48.5126 111.396 48.5266 111.396 48.5336 111.396L51.9578 111.396L51.9578 108.487L54.2523 107.522L56.5679 106.542L57.5012 107.627L57.5012 107.923L56.3013 109.311L55.5575 110.17L55.5364 110.192L55.7048 110.368L56.4977 111.178L56.596 111.291L57.3257 110.431L58.9396 108.55L58.9396 107L58.0204 105.93L58.9396 105.542L58.9396 107.895L64.104 106.655L69.2684 107.895L69.2684 107.937L64.104 109.177L58.9396 107.937L58.9396 111.417L61.0096 111.417L61.0096 110.396L64.097 111.143L67.1914 110.396L67.1914 111.417L69.2614 111.417L69.2614 108.67L70.8753 110.551L71.605 111.403L71.7103 111.298L72.5032 110.487L72.6716 110.318L72.6505 110.297L71.9068 109.438L70.7069 108.05L70.7069 107.754L71.8997 106.38L72.6505 105.514L72.6716 105.493L72.5032 105.324L71.7103 104.514L71.605 104.408L70.8823 105.253L69.2614 107.148L69.2614 104.436L67.1914 104.436L67.1914 105.458L64.104 104.711L61.0096 105.458L61.0096 104.697L73.3101 99.5119L73.3522 99.4979L73.3943 99.4767C74.903 98.73 76.58 98.3285 78.25 98.3214L78.25 99.1527L76.3765 99.1527L76.3765 100.252L78.25 100.252L78.25 100.991L79.5692 100.991L79.5692 100.252L80.1937 100.252C80.3691 100.252 80.5305 100.223 80.6778 100.167C80.8252 100.111 80.9585 100.04 81.0708 99.9487C81.176 99.8571 81.2672 99.7444 81.3304 99.6176C81.4006 99.4908 81.4356 99.357 81.4356 99.2231L81.4356 98.7934C82.5724 99.1456 83.646 99.6881 84.6213 100.414L90.2207 104.485L90.1155 104.485L90.1155 107.937L93.5538 107.937L93.5538 106.909L97.006 109.424L97.006 118.483L100.479 118.483L100.479 116.736L99.0971 116.736L99.0971 111.375C99.2374 111.347 99.3707 111.298 99.497 111.234L101.307 112.559C101.258 112.587 101.202 112.615 101.153 112.643C100.95 112.749 100.732 112.798 100.5 112.798L100.5 114.869C100.978 114.869 101.42 114.771 101.841 114.559C102.248 114.355 102.605 114.08 102.914 113.721L109.335 118.391L109.335 118.871L107.265 120.124L109.335 121.202L109.335 125.373L112.352 125.373L112.352 123.633L110.906 123.633L110.906 121.202L108.836 120.124L110.408 119.173L121.235 127.049L121.235 127.965L122.498 127.965L122.611 128.05L122.611 134.925L117.86 134.925L117.86 132.417C119.762 132.417 121.305 130.867 121.305 128.958C121.305 127.049 119.762 125.499 117.86 125.499C115.959 125.499 114.415 127.049 114.415 128.958C114.415 130.607 115.573 131.988 117.116 132.326L114.415 132.326L114.415 135.785L117.832 135.785L117.832 139.025C117.832 139.025 117.832 139.046 117.832 139.06L117.832 141.244C117.832 141.244 117.832 141.265 117.832 141.279L117.832 142.16L103.96 136.848L103.96 132.164L102.241 132.164L102.241 130.438L98.7953 130.438L98.7953 133.897L100.493 133.897L100.493 133.911L101.876 133.911L101.876 136.059L94.2274 133.129C91.982 132.241 89.6804 131.572 87.3368 131.114L87.7648 128.817L85.6177 128.817L85.2528 130.762C83.4214 130.508 81.569 130.374 79.6955 130.374C78.5307 130.374 77.3659 130.424 76.2151 130.529L76.2151 125.408C76.2151 124.457 75.4432 123.682 74.496 123.682C73.5487 123.682 72.7768 124.457 72.7768 125.408L72.7768 130.98C72.0752 131.1 71.3805 131.248 70.6858 131.41C70.4051 130.846 69.8227 130.459 69.1561 130.459C68.9667 130.459 68.7772 130.487 68.6088 130.55L68.4755 130.395L67.2756 129.008L67.2756 128.712L68.4685 127.338L68.7351 127.028C68.9035 127.085 69.079 127.12 69.2684 127.12C70.2087 127.12 70.9735 126.352 70.9735 125.408C70.9735 124.464 70.2087 123.696 69.2684 123.696C68.3282 123.696 67.5633 124.464 67.5633 125.408C67.5633 125.605 67.6054 125.788 67.6616 125.964L67.4581 126.197L65.8372 128.092L64.2163 126.197L64.0268 125.971C64.09 125.795 64.1321 125.605 64.1321 125.401C64.1321 124.457 63.3672 123.689 62.427 123.689C61.4867 123.689 60.7219 124.457 60.7219 125.401C60.7219 126.345 61.4867 127.113 62.427 127.113C62.6094 127.113 62.7848 127.077 62.9462 127.021L63.2129 127.324L64.4057 128.698L64.4057 128.994L63.2059 130.381L62.9813 130.642C62.8059 130.586 62.6235 130.543 62.434 130.543C61.4937 130.543 60.7289 131.311 60.7289 132.255C60.7289 133.199 61.4937 133.967 62.434 133.967C63.3743 133.967 64.1391 133.199 64.1391 132.255C64.1391 132.065 64.104 131.889 64.0409 131.713L64.2233 131.494L65.8372 129.614L67.451 131.494L67.5423 131.6C67.4791 131.769 67.451 131.952 67.451 132.143C67.451 132.192 67.451 132.234 67.4581 132.283C66.6932 132.523 65.9424 132.798 65.1916 133.094L58.5467 135.637L58.5467 135.115L60.6166 134.03L58.5467 132.784L58.5467 128.81L55.5294 128.81L55.5294 130.55L56.9679 130.55L56.9679 132.784L59.0378 134.03L56.9679 135.115L56.9679 136.242L52.7086 137.87L52.021 137.51L54.091 136.264L54.091 134.03L55.5294 134.03L55.5294 132.29L52.5192 132.29L52.5192 136.264L50.4492 137.51L51.8035 138.222L40.9835 142.357L41.5729 139.229L39.4047 139.229L38.6609 143.252L17.3156 151.417L17.3156 151.085C17.0841 151.085 16.8665 151.036 16.656 150.93C16.4525 150.825 16.2701 150.677 16.1157 150.494C15.9614 150.311 15.8351 150.099 15.7438 149.853C15.6526 149.613 15.6105 149.36 15.6105 149.085L15.6105 146.901C15.6105 146.633 15.6526 146.373 15.7438 146.126C15.8351 145.879 15.9614 145.668 16.1157 145.485C16.2701 145.309 16.4525 145.168 16.656 145.062C16.8665 144.957 17.0841 144.9 17.3156 144.9L17.3156 142.829C16.8385 142.829 16.3964 142.935 15.9754 143.146C15.5544 143.358 15.1825 143.646 14.8738 144.013C14.558 144.386 14.3054 144.816 14.1229 145.309C13.9405 145.802 13.8493 146.337 13.8493 146.901L13.8493 149.085C13.8493 149.655 13.9405 150.184 14.1229 150.677C14.3054 151.17 14.558 151.607 14.8738 151.973C14.958 152.072 15.0422 152.163 15.1334 152.255L13.1827 153.002L13.5546 151.438L12.8108 148.338L13.8282 148.338L13.8282 146.253L10.3619 146.253L11.5969 151.438L11.0285 153.826L9.47077 154.418L10.3689 149.677L8.20072 149.677L7.16223 155.305L3.33103 156.77L8.6498 142.759L13.8212 142.759L13.8212 139.307L9.96196 139.307L11.632 134.911C12.2284 135.418 13.0003 135.721 13.8493 135.721C14.565 135.721 15.2176 135.503 15.7649 135.129C15.7649 135.129 15.7672 135.129 15.7719 135.129C15.6947 135.327 15.6456 135.538 15.6456 135.77C15.6456 136.714 16.4104 137.482 17.3507 137.482C18.291 137.482 19.0558 136.714 19.0558 135.77C19.0558 134.826 18.291 134.059 17.3507 134.059C17.1191 134.059 16.9016 134.108 16.7052 134.185C17.07 133.636 17.2805 132.981 17.2805 132.276C17.2805 130.402 15.8 128.874 13.9405 128.825L17.1402 120.392L19.0277 120.392L19.0277 121.843L20.7609 121.843L20.7609 118.814L17.7366 118.814L20.7469 110.889L20.7469 112.664L23.315 114.961L24.2202 113.728L22.1994 111.91L22.1994 111.298L24.1571 109.029L23.0975 107.937L20.8942 110.509L24.2342 101.717L24.2342 106.218L27.7006 106.218L27.7006 104.485L26.3253 104.485L26.3253 97.5747L27.7006 97.5747L27.7006 95.8487L26.4656 95.8487L26.8936 94.7146C29.7214 87.4939 30.381 79.7096 28.8794 72.2282L28.8794 72.2141C29.4829 72.7636 30.2828 73.1088 31.1669 73.1088C33.0685 73.1088 34.6122 71.559 34.6122 69.6499C34.6122 67.7408 33.0685 66.191 31.1669 66.191C29.6723 66.191 28.4093 67.1561 27.9321 68.4946L27.9321 68.4734C27.7006 67.6915 27.441 66.9236 27.1603 66.1628L27.6865 66.1628L27.6865 59.245C27.6865 59.245 27.6865 59.2239 27.6865 59.2168C27.6865 58.2658 26.9147 57.4909 25.9674 57.4909C25.1885 57.4909 24.543 58.0122 24.3255 58.7167L24.3255 58.7026L19.7996 46.8043L19.7996 46.7831C20.1013 46.8888 20.4241 46.9663 20.7609 46.9663L20.7609 44.8952C20.5294 44.8952 20.3118 44.8459 20.1083 44.7402C19.9049 44.6345 19.7224 44.4866 19.568 44.3034C19.4137 44.1203 19.2874 43.9089 19.1962 43.6624C19.1049 43.4229 19.0628 43.1622 19.0628 42.8945L19.0628 40.7107C19.0628 40.436 19.1049 40.1823 19.1962 39.9358C19.2874 39.6892 19.4067 39.4779 19.568 39.2947C19.7224 39.1186 19.9049 38.9707 20.1083 38.8721C20.3118 38.7664 20.5294 38.7171 20.7609 38.7171L20.7609 36.646C20.2908 36.646 19.8417 36.7516 19.4207 36.963C18.9997 37.1743 18.6348 37.4631 18.319 37.8365C18.0033 38.2099 17.7577 38.6396 17.5682 39.1327C17.4279 39.499 17.3648 39.8935 17.3297 40.3091L17.3156 40.2739L11.4917 24.9519L12.0811 23.9727L13.1617 26.0509L15.5755 26.0509L15.5755 27.495L17.3086 27.495L17.3086 24.4729L13.1617 24.4729L12.0811 22.3877L11.1268 23.9798L9.64622 20.0912C9.77954 20.0418 9.89883 19.9714 9.99706 19.8869C10.1023 19.7953 10.1935 19.6896 10.2567 19.5628C10.3269 19.436 10.3619 19.3022 10.3619 19.1683L10.3619 17.7664C10.3619 17.6326 10.3269 17.4987 10.2567 17.379C10.1935 17.2522 10.1023 17.1465 9.99706 17.0479C9.88479 16.9563 9.75147 16.8788 9.60412 16.8295C9.45676 16.7802 9.29538 16.752 9.11996 16.752L8.49545 16.752L8.49546 15.7658L10.0041 15.7658L10.0041 14.6668L8.49546 14.6668L8.49546 13.9764L7.33066 13.9764L3.37315 3.38841L6.95175 4.75507L6.95175 10.4471L10.397 10.4471L10.397 6.07945L15.6456 8.08716L15.2036 10.4823L17.3437 10.4823C17.3507 10.9402 17.456 11.3699 17.6595 11.7785C17.87 12.2012 18.1647 12.5746 18.5366 12.8916C18.9085 13.2015 19.3435 13.4551 19.8417 13.6383C20.3399 13.8215 20.8732 13.9201 21.4416 13.9201L23.6448 13.9201C24.2132 13.9201 24.7465 13.8215 25.2447 13.6383C25.7429 13.4551 26.1779 13.2015 26.5498 12.8916C26.7182 12.7507 26.8656 12.5957 26.9989 12.4337L35.8682 15.8221L35.8752 15.8221C35.8191 15.8714 35.763 15.9067 35.7068 15.963C35.0332 16.6393 35.0332 17.7383 35.7068 18.4075C35.7138 18.4145 35.7209 18.4216 35.7279 18.4286L38.1487 20.859L40.5835 18.4145C40.766 18.2243 40.8993 18.006 40.9765 17.7735L46.0146 19.7037L42.9622 22.7681L46.6391 26.4595L50.3159 22.7681L48.0354 20.4786L53.5577 22.6131L53.6349 22.6131C53.1858 22.6483 52.7508 22.7258 52.3508 22.8738C51.8596 23.0569 51.4316 23.3105 51.0597 23.6275C50.6878 23.9446 50.4001 24.3109 50.1896 24.7335C49.9791 25.1562 49.8738 25.6071 49.8738 26.0791L51.9368 26.0791C51.9368 25.8466 51.9859 25.6282 52.0912 25.4239C52.1964 25.2196 52.3368 25.0365 52.5122 24.8815C52.6876 24.7265 52.9051 24.5997 53.1507 24.5081C53.3963 24.4165 53.6559 24.3743 53.9226 24.3743L56.9468 24.3743C57.2205 24.3743 57.4731 24.4165 57.7117 24.5081C57.9502 24.5997 58.1608 24.7195 58.3502 24.8815C58.5326 25.0365 58.68 25.2196 58.7853 25.4239C58.8905 25.6282 58.9396 25.8466 58.9396 26.0791L61.0026 26.0791C61.0026 25.8536 60.9745 25.6282 60.9254 25.4169L65.1636 27.0371C65.9635 27.3541 66.7775 27.643 67.5914 27.9036C67.6195 28.8335 68.3773 29.5732 69.3035 29.5802C69.3035 30.5453 70.0754 31.3203 71.0297 31.3203C71.984 31.3203 72.7558 30.5453 72.7558 29.5873L72.7909 29.5873C73.1137 29.5802 73.4154 29.4957 73.668 29.3407C74.0329 29.3971 74.3978 29.4464 74.7626 29.4887L74.7696 29.4887C74.6574 29.6436 74.5451 29.8057 74.4609 29.9818C74.2504 30.4045 74.1451 30.8553 74.1451 31.3273C74.1451 31.5598 74.096 31.7782 73.9908 31.9824C73.8855 32.1867 73.7452 32.3699 73.5698 32.5249C73.3943 32.6799 73.1768 32.8067 72.9312 32.8982C72.6856 32.9898 72.426 33.0321 72.1594 33.0321L69.9842 33.0321C69.7105 33.0321 69.4579 32.9898 69.2193 32.8982C68.9807 32.8067 68.7702 32.6869 68.5808 32.5249C68.3983 32.3699 68.251 32.1867 68.1457 31.9824C68.0405 31.7782 67.9914 31.5598 67.9914 31.3273L65.9284 31.3273C65.9284 31.7993 66.0337 32.2501 66.2442 32.6728C66.4547 33.0955 66.7424 33.4618 67.1143 33.7788C67.4862 34.0958 67.9142 34.3424 68.4054 34.5326C68.8965 34.7157 69.4228 34.8073 69.9912 34.8073L72.1664 34.8073C72.7348 34.8073 73.261 34.7157 73.7522 34.5326C74.2434 34.3494 74.6714 34.0958 75.0433 33.7788C75.4152 33.4618 75.7029 33.0955 75.9134 32.6728C76.1239 32.2501 76.2292 31.7993 76.2292 31.3273C76.2292 31.0948 76.2783 30.8764 76.3835 30.6721C76.4888 30.4679 76.6291 30.2847 76.8045 30.1297C76.98 29.9747 77.1975 29.8479 77.4431 29.7564C77.4571 29.7564 77.4782 29.7493 77.4922 29.7423L77.4992 29.7423C78.25 29.7845 79.0008 29.8057 79.7516 29.8057C80.5024 29.8057 81.2322 29.7845 81.9619 29.7423C81.976 29.7423 81.99 29.7423 82.011 29.7564C82.2496 29.8479 82.4601 29.9677 82.6496 30.1297C82.832 30.2847 82.9794 30.4679 83.0846 30.6722C83.1899 30.8764 83.239 31.0948 83.239 31.3273L85.3019 31.3273C85.3019 30.8553 85.1967 30.4045 84.9862 29.9818C84.902 29.8057 84.7897 29.6507 84.6774 29.4957C86.1931 29.3125 87.6877 29.0378 89.1682 28.6715L90.1436 29.1787L90.1436 33.3421L93.1538 33.3421L93.1538 31.602L91.7154 31.602L91.7154 29.1787L90.2278 28.3967C91.6031 28.0234 92.9573 27.5725 94.2905 27.0442L95.5045 26.5792L95.5045 26.8469L97.5744 28.0938L95.5045 29.1787L95.5045 31.602L94.066 31.602L94.066 33.3421L97.0762 33.3421L97.0762 29.1787L99.1462 28.0938L97.0762 26.8469L97.0762 25.9805L102.577 23.8741L101.841 27.8543L103.981 27.8543L104.9 22.9865L110.991 20.6547L110.991 20.9577L112.106 20.9577L111.931 21.7396L110.991 21.7396L110.991 23.1203L111.629 23.1203L111.334 24.3602L112.85 24.3602L113.145 23.1203L115.004 23.1203L114.71 24.3602L116.239 24.3602L116.52 23.1203L117.811 23.1203L117.811 21.7396L116.843 21.7396L117.011 20.9577L117.811 20.9577L117.811 19.5769L117.334 19.5769L117.671 18.0976L132.196 12.5323L132.224 12.5323C132.161 12.6591 132.09 12.7859 132.034 12.9268C131.852 13.4199 131.761 13.9483 131.761 14.5189L131.761 16.7027C131.761 17.2733 131.852 17.8017 132.034 18.2948C132.217 18.7879 132.469 19.2176 132.785 19.591C133.101 19.9644 133.466 20.2532 133.887 20.4645C134.308 20.6759 134.757 20.7815 135.227 20.7815L135.227 18.7104C134.995 18.7104 134.778 18.6611 134.574 18.5555C134.371 18.4498 134.188 18.3018 134.034 18.1187C133.88 17.9355 133.753 17.7171 133.662 17.4776C133.571 17.2381 133.529 16.9775 133.529 16.7098L133.529 14.5259C133.529 14.2512 133.571 13.9976 133.662 13.751C133.753 13.5045 133.873 13.2931 134.034 13.11C134.188 12.9339 134.371 12.7859 134.574 12.6873C134.778 12.5816 134.995 12.5323 135.227 12.5323L135.227 11.3911L138.714 10.0526L138.714 13.9342L142.153 13.9342L142.153 8.74233L156.116 3.39548L149.057 21.9862L149.057 20.9647L145.612 20.9647L145.612 27.8473L146.833 27.8473L144.159 34.8848L144.033 34.8848L143.83 35.7443L143.83 35.7654L143.359 36.9982L141.689 36.9982L142.181 34.8848L140.651 34.8848L140.16 36.9982L138.721 36.9982L138.721 38.3719L139.844 38.3719L139.669 39.1609L138.721 39.1609L138.721 40.5346L139.36 40.5346L139.072 41.7744L140.588 41.7744L140.875 40.5346L142.012 40.5346L139.795 46.3816L135.234 45.2897L135.234 48.7697L137.311 48.7697L137.311 47.7553L139.107 48.1921L136.637 54.7013L136.637 54.7224L136.63 54.7224L137.114 52.1652L134.953 52.1652L133.648 59.1887L134.932 59.1887L133.613 62.6546L133.115 62.6546L133.115 63.669L130.027 62.9223L126.933 63.669L126.933 62.6546L124.863 62.6546L124.863 66.1347L130.027 64.8948L132.539 65.4936C132.35 65.9797 132.168 66.4587 132.006 66.9448L130.027 67.4168L124.863 66.1769L124.863 69.657L126.933 69.657L126.933 68.6355L130.027 69.3822L131.333 69.0652C130.947 70.4107 130.631 71.7703 130.392 73.144L130.175 73.144L129.684 75.2574L127.831 75.2574L128.329 73.144L126.8 73.144L126.301 75.2574L124.87 75.2574L124.87 76.6382L125.986 76.6382L125.81 77.4201L124.87 77.4201L124.87 78.8008L125.509 78.8008L125.214 80.0407L126.729 80.0407L127.024 78.8008L128.884 78.8008L128.589 80.0407L129.782 80.0407C129.782 82.3725 129.985 84.6972 130.392 87.0008L129.585 87.0008L128.28 94.0242L130.427 94.0242L131.129 90.3047C131.311 91.0162 131.522 91.7277 131.754 92.4181L131.754 92.6646L131.831 92.6646C132.006 93.1929 132.196 93.7213 132.392 94.2426L132.027 95.7642L132.771 98.8709L131.754 98.8709L131.754 100.949L134.939 100.949L137.592 107.937L135.304 107.937L135.304 109.677L136.686 109.677L136.686 116.637L135.304 116.637L135.304 118.377L138.77 118.377L138.77 111.044L142.167 119.984L142.167 120.766L140.405 120.766L140.405 119.321L138.672 119.321L138.672 122.343L142.167 122.343L142.167 125.309L144.187 125.309L148.257 136.024L148.068 135.834L147.962 135.728L147.24 136.574L145.619 138.469L143.998 136.574L143.275 135.728L143.17 135.834L142.377 136.644L142.209 136.813L142.23 136.834L142.98 137.701L144.173 139.074L144.173 139.37L142.973 140.758L142.23 141.618L142.209 141.639L142.377 141.808L143.17 142.618L143.275 142.724L144.005 141.871L145.619 139.99L147.233 141.871L147.962 142.724L148.068 142.618L148.861 141.808L149.029 141.639L149.008 141.618L148.264 140.758L147.064 139.37L147.064 139.074L148.257 137.701L148.706 137.179L151.331 144.09L147.359 144.09L147.359 142.702L145.626 142.702L145.626 144.09L145.626 142.702L143.893 142.702L143.893 144.09L138.693 144.09L138.693 142.702L138.693 142.66C138.532 142.66 138.37 142.674 138.216 142.702L136.96 142.702L136.96 143.21C136.7 143.386 136.462 143.597 136.251 143.844C135.936 144.217 135.69 144.647 135.501 145.14C135.318 145.64 135.227 146.168 135.227 146.732L135.227 148.726L121.362 143.421L121.355 143.435ZM110.956 117.673L109.384 116.532L103.714 112.411L102.184 111.298L100.451 110.037L100.037 109.734L97.9112 108.184L97.6446 107.994L93.6029 105.049L92.7679 104.443L85.5405 99.1879C84.2284 98.2087 82.7478 97.5254 81.2041 97.152C80.2638 96.9266 79.2955 96.8068 78.3272 96.8068C77.6536 96.8068 76.9729 96.8632 76.2993 96.9759C75.0994 97.1802 73.9206 97.5606 72.7909 98.1171L57.0591 104.746L55.5926 105.359L53.7261 106.148L61.5148 87.043L61.5499 86.9514C61.6972 86.6485 61.8306 86.3456 61.9428 86.0427C63.1146 83.0699 63.0866 79.8082 61.9428 76.927C61.8937 76.8072 61.8446 76.6874 61.7955 76.5747C61.4446 75.7646 61.0026 74.9897 60.4693 74.2641L57.1994 69.6992L57.2205 69.5935L57.1223 69.5935L51.4105 61.6261L49.6844 59.2168L38.1346 43.0988L36.3804 40.6473L34.9981 38.7241L34.6753 38.2733L32.1984 34.8144L29.7706 31.433L29.6653 31.285L28.3953 29.5098L25.9113 26.0438L30.7319 29.5027L32.5703 30.8201L41.6641 37.3504L44.127 39.1186L47.039 41.2038L55.7048 47.4242L56.9328 48.3048L62.413 52.2427L62.427 52.2427L66.4827 55.1592L67.2967 55.7439L70.7771 58.2447L72.3558 59.3718L73.9908 60.5483C75.7169 61.8163 77.7027 62.5701 79.7586 62.8096C80.2217 62.8589 80.6849 62.8871 81.155 62.8871C81.8426 62.8871 82.5233 62.8307 83.2039 62.711C84.3406 62.5208 85.4633 62.1685 86.5299 61.6543L88.5437 60.8442L90.1506 60.1961L91.5259 59.6466L93.6169 58.8083L97.0762 57.4134L98.648 56.7865L101.686 55.5678L101.693 55.5678L103.826 54.7013L105.728 53.9405L97.8832 73.1652C97.1464 74.6797 96.7324 76.3 96.6412 77.9203C96.5991 78.6247 96.6201 79.3221 96.6973 80.0195C96.9289 82.0977 97.6937 84.1125 98.9637 85.8595L100.95 88.6351L102.079 90.206L131.824 131.699L132.217 132.241L133.557 134.115L124.751 127.711L122.653 126.183L110.956 117.673V117.673ZM79.6183 98.3566C79.8007 98.3778 79.9832 98.4059 80.1586 98.4341L80.1586 99.1104L79.6183 99.1104L79.6183 98.3566V98.3566ZM58.9326 81.4919L60.4974 80.5408L60.4974 78.3148L60.8833 78.3148C61.5709 80.569 61.5078 83.0205 60.6587 85.303L60.4974 85.303L60.4974 82.8726L58.9326 82.0554L58.9326 81.4919V81.4919ZM46.0777 38.71L45.5585 38.3367L46.1619 38.3367L46.0777 38.71ZM64.8478 50.7211L66.4827 51.5735L66.4827 53.3557L64.6092 52.0032L64.8478 50.7211ZM100.62 80.0196L101.813 85.0212L101.406 86.7401L100.157 85.0001C99.062 83.5066 98.3954 81.7948 98.1709 80.0196L100.62 80.0196V80.0196ZM129.368 76.6311L129.199 77.4131L127.333 77.4131L127.522 76.6311L129.368 76.6311ZM137.051 149.444C137.009 149.282 136.988 149.106 136.988 148.93L136.988 146.746C136.988 146.556 137.009 146.373 137.058 146.196L141.9 146.197L141.016 150.959L137.051 149.444ZM147.64 150.621L146.945 150.621L146.945 149.627L147.64 149.627L147.64 150.621ZM156.123 156.742L155.828 156.63L156.011 156.63L156.011 156.446L156.123 156.742ZM154.769 153.171L152.565 153.171L152.565 155.383L149.113 154.058L149.583 154.058C149.759 154.058 149.92 154.03 150.067 153.974C150.215 153.917 150.348 153.847 150.453 153.755C150.566 153.664 150.657 153.558 150.72 153.431C150.79 153.305 150.818 153.171 150.818 153.03L150.818 151.635C150.818 151.501 150.79 151.367 150.72 151.24C150.657 151.121 150.566 151.008 150.453 150.916C150.348 150.825 150.215 150.747 150.067 150.698C149.92 150.642 149.759 150.621 149.583 150.621L148.959 150.621L148.959 149.627L150.467 149.627L150.467 148.535L148.959 148.535L148.959 147.838L147.64 147.838L147.64 148.535L146.861 148.535C146.685 148.535 146.524 148.563 146.377 148.62C146.229 148.676 146.096 148.747 145.984 148.838C145.864 148.93 145.78 149.035 145.717 149.162C145.654 149.282 145.619 149.416 145.619 149.564L145.619 150.684C145.619 150.825 145.654 150.952 145.717 151.085C145.78 151.212 145.864 151.318 145.984 151.409C146.096 151.501 146.229 151.572 146.377 151.628C146.524 151.684 146.685 151.712 146.861 151.712L147.64 151.712L147.64 152.966L146.257 152.966L143.023 151.727L144.061 146.197L152.116 146.197L154.769 153.171ZM148.959 152.966L148.959 151.712L149.499 151.712L149.499 152.966L148.959 152.966Z" fill="#FF801A"/>
<path d="M24.2766 123.604L24.2766 125.316L25.9887 125.316L25.9746 125.204C25.9746 124.246 26.7465 123.471 27.7008 123.471C28.6551 123.471 29.4269 124.246 29.4269 125.204L29.4129 125.316L31.2092 125.316L31.2092 120.04C31.2092 119.124 30.4654 118.377 29.5532 118.377L24.2766 118.377L24.2766 120.146C23.3293 120.146 22.5645 120.92 22.5645 121.871C22.5645 122.823 23.3293 123.597 24.2766 123.597L24.2766 123.604Z" fill="#FF801A"/>
<path d="M25.9324 128.81C25.9324 127.881 25.1956 127.127 24.2764 127.084L24.2764 125.316L22.4731 125.316L22.4731 125.337C22.4731 126.295 21.7012 127.07 20.7539 127.07C19.8067 127.07 19.0278 126.295 19.0278 125.337L19.0278 125.316L17.3438 125.316L17.3437 130.614C17.3437 131.53 18.0875 132.276 18.9997 132.276L24.2764 132.276L24.2764 130.529C25.1956 130.494 25.9324 129.74 25.9324 128.803L25.9324 128.81Z" fill="#FF801A"/>
<path d="M243.485 45.2615V62.6616H214.014V114.869H196.682V62.6616H167.226V45.2615H243.492H243.485Z" fill="#131313"/>
<path d="M416.829 45.2615V62.6616H387.359V114.869H370.027V62.6616H340.57V45.2615H416.837H416.829Z" fill="#131313"/>
<path d="M330.157 45.2615V114.876H253.884V45.2615H330.157ZM312.825 62.6616H271.222V97.469H312.825V62.6616V62.6616Z" fill="#131313"/>
<path d="M500 76.5888V114.869H427.221V97.469H482.675V90.516L427.221 83.5559V45.2615H500V62.6687H444.545V69.6287L500 76.5888Z" fill="#131313"/>
</g>
<defs>
<clipPath id="clip0_966_31161">
<rect width="500" height="160.131" fill="white"/>
</clipPath>
</defs>
</svg>
