<svg width="266" height="158" viewBox="0 0 266 158" fill="none" xmlns="http://www.w3.org/2000/svg">
<rect width="266" height="158" fill="#D0D0D0"/>
<g clip-path="url(#clip0_461_1287)">
<path d="M201.166 22H63.8368C59.5086 22 56 25.5096 56 29.8391V130.161C56 134.49 59.5086 138 63.8368 138H201.163C205.491 138 209 134.49 209 130.161V29.8391C209 25.5096 205.491 22 201.163 22H201.166Z" fill="#F0EDE2"/>
<path d="M197.163 133.422C201.2 133.422 204.474 130.147 204.474 126.107V32.4924C204.474 28.4523 201.2 25.177 197.163 25.177H133.106V133.425H197.163V133.422Z" fill="#DDDBD0"/>
<path d="M129.953 109.361L114.002 90.4666C111.942 88.0264 106.792 88.0264 104.733 90.4666L57.4933 128.256C55.4341 130.696 58.0081 133.748 62.1291 133.748H133.312V113.344L129.95 109.361H129.953Z" fill="#6DA1A1"/>
<path d="M208.928 126.115L179.914 73.5804C177.052 70.188 169.891 70.188 167.026 73.5804L144.851 99.8476L133.385 113.43L133.377 113.42L133.312 113.344V133.748H203.335C209.063 133.748 211.793 129.507 208.928 126.115Z" fill="#588281"/>
<path d="M85.7891 64.7796C85.7891 70.8905 90.7421 75.8464 96.8495 75.8464V53.7129C90.7421 53.7129 85.7891 58.6687 85.7891 64.7796Z" fill="#E6BA59"/>
<path d="M96.8521 53.7129V75.8464C102.959 75.8464 107.912 70.8905 107.912 64.7796C107.912 58.6687 102.959 53.7129 96.8521 53.7129Z" fill="#C7A24F"/>
<path d="M69.0503 133.422C65.0125 133.422 61.7391 130.147 61.7391 126.107V32.4924C61.7391 28.4523 65.0125 25.177 69.0503 25.177H133.107V20.856H63.1925C58.7855 20.856 55.2131 24.4304 55.2131 28.8399V131.016C55.2131 135.426 58.7855 139 63.1925 139H133.107V133.425H69.0503V133.422Z" fill="#4E4F51"/>
<path d="M203.02 20.856H133.106V25.177H197.163C201.2 25.177 204.474 28.4523 204.474 32.4924V126.11C204.474 130.15 201.2 133.425 197.163 133.425H133.106V139H203.02C207.427 139 211 135.426 211 131.016V28.8399C211 24.4304 207.427 20.856 203.02 20.856Z" fill="#404042"/>
</g>
<defs>
<clipPath id="clip0_461_1287">
<rect width="156" height="119" fill="white" transform="translate(55 20)"/>
</clipPath>
</defs>
</svg>
