<?xml version="1.0" encoding="UTF-8"?>
<svg width="200px" height="200px" viewBox="0 0 200 200" version="1.1" xmlns="http://www.w3.org/2000/svg">
    <g stroke="none" stroke-width="1" fill="none" fill-rule="evenodd">
        <!-- Fondo decorativo -->
        <circle fill="#E8F5E9" cx="100" cy="100" r="100"/>
        
        <!-- Elementos decorativos (confeti) -->
        <circle fill="#81C784" cx="160" cy="40" r="12"/>
        <circle fill="#4CAF50" cx="30" cy="150" r="8"/>
        <circle fill="#2E7D32" cx="170" cy="170" r="6"/>
        <path d="M40,40 L55,55" stroke="#66BB6A" stroke-width="4" stroke-linecap="round"/>
        <path d="M150,130 L165,145" stroke="#66BB6A" stroke-width="4" stroke-linecap="round"/>
        
        <!-- Check mark principal -->
        <circle fill="#4CAF50" cx="100" cy="100" r="50"/>
        <path d="M75,100 L95,120 L125,80" stroke="#FFFFFF" stroke-width="8" stroke-linecap="round" stroke-linejoin="round"/>
        
        <!-- Estrellas -->
        <path d="M30,70 L35,75 L30,80 L25,75 L30,70" fill="#FFD54F"/>
        <path d="M160,110 L165,115 L160,120 L155,115 L160,110" fill="#FFD54F"/>
        <path d="M140,30 L145,35 L140,40 L135,35 L140,30" fill="#FFD54F"/>
    </g>
</svg> 